<svg xmlns="http://www.w3.org/2000/svg" viewBox="3838 459 640 640">
  <defs>
    <style>
      .cls-1 {
        fill: #54abee;
      }

      .cls-2, .cls-3, .cls-4 {
        fill: #fff;
      }

      .cls-3 {
        font-size: 60px;
      }

      .cls-3, .cls-4 {
        font-family: Lato-Regular, Lato;
      }

      .cls-4 {
        font-size: 30px;
      }
    </style>
  </defs>
  <g id="Group_158" data-name="Group 158" transform="translate(3198 19)">
    <rect id="Rectangle_9" data-name="Rectangle 9" class="cls-1" width="640" height="640" transform="translate(640 440)"/>
    <path id="Path_86" data-name="Path 86" class="cls-2" d="M305.17.087l-30.379,20L244.239,82.743H219.671l-9.647-18.387h6.3c11.529,0,20.9-8.159,20.9-18.3V27.58h10.452V0H216.327V27.58h10.452V46.056c0,5.066-4.687,9.106-10.452,9.106H205.2l-13.359-25.42,16-7.015-52.4-19.739L143.129,40.907c-.335-22.561-21.276-40.824-47-40.824C70.189.083,49.091,18.64,49.091,41.454c0,13.786,7.938,26.716,20.9,34.361v6.927H57.338l-.815,3.77a91.2,91.2,0,0,0-.7,35.377l-35.653,55.9L59.543,185.7v57.933H111.8V285H237.23V220.944c36.582-22.763,57.476-59.363,57.445-98.408l.011-16.769a94.309,94.309,0,0,0-2-19.215l-.774-3.811H281.652L305.17,33.184V.087ZM226.778,18.474V9.281H237.23v9.194Zm-18.62,64.267H188.336l-9.5-18.387h19.677ZM162.231,15.56l20.774,7.829L178.1,25.5l15.584,29.659h-19.6L161.348,30.574l-4.677,2.077Zm14.623,67.183h-23.24V73.637c0-5.07,4.687-9.281,10.452-9.281h3.287ZM156.331,43.1l6.339,12.269c-10.871.644-19.509,8.541-19.509,18.263v9.106h-20.9V75.815c10.458-6.165,17.554-15.785,19.948-26.5ZM59.544,41.459c0-17.739,16.415-32.177,36.582-32.177s36.582,14.438,36.582,32.177c0,11.419-7.013,22.088-18.3,27.838l-2.608,1.323V82.742H101.353V54.4c6.068-1.9,10.452-6.96,10.452-12.945,0-7.6-7.035-13.791-15.679-13.791S80.448,33.851,80.448,41.454c0,5.985,4.384,11.041,10.452,12.945V82.743H80.448V70.62L77.84,69.292C66.557,63.541,59.544,52.877,59.544,41.459Zm36.582,4.6c-2.885,0-5.226-2.065-5.226-4.6s2.341-4.6,5.226-4.6,5.226,2.059,5.226,4.6S99.012,46.056,96.127,46.056ZM283.115,91.936a85.167,85.167,0,0,1,1.14,13.79l.011,16.8c.032,36.825-20.627,71.309-55.188,92.239l-2.3,1.379v59.662H122.258V234.436H70V178.365l-33.87-6.8,30.593-47.977-.3-1.641a83.57,83.57,0,0,1-.365-30.012H283.115Zm-12.788-9.195H255.606l26.052-53.424,11.586,5.075Zm24.39-57.919-5.78-2.542,5.78-3.806Z" transform="translate(793.83 511)"/>
    <path id="Path_87" data-name="Path 87" class="cls-2" d="M108.622,138.065c-8.644,0-15.679-4.6-15.679-13.791H82.491c0,13.791,11.722,22.984,26.131,22.984s26.131-9.194,26.131-22.984H124.3C124.3,133.468,117.266,138.065,108.622,138.065Z" transform="translate(791.457 492.452)"/>
    <text id="Graphics_Design" data-name="Graphics Design" class="cls-3" transform="translate(961 869)"><tspan x="-213.99" y="0">Graphics Design</tspan></text>
    <text id="_24_Hrs" data-name="24 Hrs" class="cls-4" transform="translate(960 481)"><tspan x="-44.49" y="0">24 Hrs</tspan></text>
  </g>
</svg>
