<svg xmlns="http://www.w3.org/2000/svg" viewBox="4478 459 640 640">
  <defs>
    <style>
      .cls-1 {
        fill: #54abee;
      }

      .cls-2, .cls-3, .cls-4, .cls-5 {
        fill: #fff;
      }

      .cls-2 {
        font-size: 40px;
      }

      .cls-2, .cls-4 {
        font-family: Lato-Regular, Lato;
      }

      .cls-4 {
        font-size: 30px;
      }

      .cls-5 {
        stroke: #fff;
      }
    </style>
  </defs>
  <g id="Group_481" data-name="Group 481" transform="translate(3198 19)">
    <g id="Group_159" data-name="Group 159">
      <g id="Group_153" data-name="Group 153" transform="translate(2)">
        <g id="Group_151" data-name="Group 151">
          <rect id="Rectangle_9" data-name="Rectangle 9" class="cls-1" width="640" height="640" transform="translate(1278 440)"/>
          <text id="Illustrations" class="cls-2" transform="translate(1598 869)"><tspan x="-102.28" y="0">Illustrations</tspan></text>
          <path id="Path_88" data-name="Path 88" class="cls-3" d="M0,0V285H285V0ZM268.3,268.3H16.7V16.7H268.3Z" transform="translate(1455.5 511)"/>
        </g>
        <path id="Path_89" data-name="Path 89" class="cls-3" d="M253.263,127.337l-77.354,80.018,35.615-64.107v-26l-3.391-2.5A74.557,74.557,0,0,1,177.576,54.75l-.055-8.3H116.386l-.055,8.3a74.556,74.556,0,0,1-30.557,59.993l-3.39,2.5v26l29.337,52.807-64.663-74.64-17.218,15.9L142.082,251.345l5.138,5.22,4.605-5.22L257.656,131.4Zm-106.309-8.519a16.7,16.7,0,0,0-8.35,31.159V210.06L99.083,138.921V125.548a92.693,92.693,0,0,0,23.636-28.975,91.994,91.994,0,0,0,9.88-33.418h28.71a91.994,91.994,0,0,0,9.88,33.418,92.687,92.687,0,0,0,23.636,28.975V138.92L155.3,210.059V149.977a16.7,16.7,0,0,0-8.35-31.159Z" transform="translate(1451.046 504.066)"/>
      </g>
    </g>
    <g id="Group_476" data-name="Group 476" transform="translate(1255 9)">
      <text id="_24_HOURS" data-name="24 HOURS" class="cls-4" transform="translate(365 477)"><tspan x="-73.267" y="0">24 HOURS</tspan></text>
      <g id="Group_472" data-name="Group 472" transform="translate(29 66)">
        <g id="Group_471" data-name="Group 471">
          <path id="Path_205" data-name="Path 205" class="cls-5" d="M29.836,29.995a1.924,1.924,0,0,0,1.386-.73L36.2,22.793a.478.478,0,0,0-.055-.647.559.559,0,0,0-.688-.052l-6.884,4.683a1.756,1.756,0,0,0-.774,1.3,1.721,1.721,0,0,0,.549,1.4A1.952,1.952,0,0,0,29.687,30C29.736,30,29.786,30,29.836,29.995Zm-.976-1.837a.77.77,0,0,1,.339-.571l4.2-2.857-3.037,3.948a.846.846,0,0,1-.608.32.871.871,0,0,1-.652-.226A.756.756,0,0,1,28.859,28.158Z" transform="translate(209.033 373)"/>
          <path id="Path_206" data-name="Path 206" class="cls-5" d="M39.874,9.782c-.005-.01-.005-.022-.011-.032s-.016-.015-.023-.025a13.684,13.684,0,0,0-1.9-2.4l1.142-1.074.752.707,2.256-2.122L39.838,2.712,37.582,4.833l.752.707L37.192,6.614a14.418,14.418,0,0,0-2.557-1.783c-.01-.006-.016-.016-.027-.022s-.023-.005-.034-.011a14.887,14.887,0,0,0-5.463-1.7V2.5h.8a1.293,1.293,0,0,0,1.329-1.25A1.293,1.293,0,0,0,29.908,0H25.122a1.293,1.293,0,0,0-1.329,1.25A1.293,1.293,0,0,0,25.122,2.5h.8v.578a15.482,15.482,0,0,0-1.714.268.5.5,0,0,0-.4.6.533.533,0,0,0,.637.375,14.31,14.31,0,0,1,1.478-.238l.571-.042c.174-.012.335-.022.491-.028V5a.533.533,0,0,0,1.064,0V4.015a13.843,13.843,0,0,1,5.56,1.422l-.524.853a.484.484,0,0,0,.195.683.554.554,0,0,0,.265.067A.538.538,0,0,0,34,6.791l.523-.852a13.027,13.027,0,0,1,4.133,3.886l-.906.491A.484.484,0,0,0,37.56,11a.539.539,0,0,0,.461.25.554.554,0,0,0,.265-.067l.908-.493A11.84,11.84,0,0,1,40.709,16h-1.05a.5.5,0,1,0,0,1h1.05a11.84,11.84,0,0,1-1.515,5.31l-.908-.493A.55.55,0,0,0,37.56,22a.484.484,0,0,0,.195.683l.906.492a13.027,13.027,0,0,1-4.133,3.886L34,26.208a.55.55,0,0,0-.726-.183.483.483,0,0,0-.195.683l.524.854a13.843,13.843,0,0,1-5.56,1.423V28a.533.533,0,0,0-1.064,0v.988a14.227,14.227,0,0,1-2.54-.309.531.531,0,0,0-.637.376.5.5,0,0,0,.4.6A15.243,15.243,0,0,0,27.428,30l.077,0,.01,0,.012,0a14.965,14.965,0,0,0,7.03-1.787.468.468,0,0,0,.05-.02c.011-.006.016-.015.027-.022a14.064,14.064,0,0,0,5.2-4.881.481.481,0,0,0,.032-.039c.006-.01.006-.021.011-.032a12.755,12.755,0,0,0,0-13.436Zm-.037-5.657.752.707-.752.707-.752-.707ZM26.983,3.011V1.5H25.122a.259.259,0,0,1-.266-.25A.259.259,0,0,1,25.122,1h4.786a.259.259,0,0,1,.266.25.259.259,0,0,1-.266.25H28.047V3.011C27.862,3,27.685,3,27.515,3h-.087c-.087,0-.174.006-.262.007C27.105,3.009,27.047,3.008,26.983,3.011Z" transform="translate(210.906 384)"/>
          <path id="Path_207" data-name="Path 207" class="cls-5" d="M18.984,14H16.325a.5.5,0,1,0,0,1h2.659a.5.5,0,1,0,0-1Z" transform="translate(214.652 377)"/>
          <path id="Path_208" data-name="Path 208" class="cls-5" d="M16.643,21H11.325a.5.5,0,1,0,0,1h5.318a.5.5,0,1,0,0-1Z" transform="translate(216.993 373.5)"/>
          <path id="Path_209" data-name="Path 209" class="cls-5" d="M14.3,28H6.325a.5.5,0,1,0,0,1H14.3a.5.5,0,1,0,0-1Z" transform="translate(219.334 370)"/>
          <path id="Path_210" data-name="Path 210" class="cls-5" d="M12.428,35H2.325a.5.5,0,1,0,0,1h10.1a.5.5,0,1,0,0-1Z" transform="translate(221.207 366.5)"/>
          <path id="Path_211" data-name="Path 211" class="cls-5" d="M15.238,42H8.325a.5.5,0,1,0,0,1h6.913a.5.5,0,1,0,0-1Z" transform="translate(218.398 363)"/>
          <path id="Path_212" data-name="Path 212" class="cls-5" d="M18.047,49H14.325a.5.5,0,1,0,0,1h3.722a.5.5,0,1,0,0-1Z" transform="translate(215.588 359.5)"/>
        </g>
      </g>
    </g>
  </g>
</svg>
