<svg xmlns="http://www.w3.org/2000/svg" viewBox="2102 638 480 461">
  <defs>
    <style>
      .cls-1 {
        fill: #fff;
      }

      .cls-2 {
        fill: #f5f5f5;
        stroke: #54abee;
      }

      .cls-3 {
        font-size: 29px;
        font-family: Lato-Regular, Lato;
      }

      .cls-4 {
        fill: #54abee;
      }

      .cls-5 {
        stroke: none;
      }

      .cls-6 {
        fill: none;
      }
    </style>
  </defs>
  <g id="Group_155" data-name="Group 155" transform="translate(1132 19)">
    <g id="Group_154" data-name="Group 154">
      <g id="Group_156" data-name="Group 156">
        <rect id="Rectangle_6" data-name="Rectangle 6" class="cls-1" width="480" height="461" transform="translate(970 619)"/>
      </g>
      <g id="Ellipse_1" data-name="Ellipse 1" class="cls-2" transform="translate(1061 659)">
        <circle class="cls-5" cx="150" cy="150" r="150"/>
        <circle class="cls-6" cx="150" cy="150" r="149.5"/>
      </g>
      <text id="PAY_ONLINE_THROUGH_OUR_SECURE_GATEWAY" data-name="PAY ONLINE THROUGH
 OUR SECURE GATEWAY" class="cls-3" transform="translate(1212 1000)"><tspan x="-158.427" y="0">PAY ONLINE THROUGH</tspan><tspan x="-164.792" y="35" xml:space="preserve"> OUR SECURE GATEWAY</tspan></text>
    </g>
    <g id="Group_42" data-name="Group 42" transform="translate(1132 730.697)">
      <path id="Path_24" data-name="Path 24" class="cls-4" d="M151.826,105.075l-36.016.049c.3-4.759.117-10.61.05-19.847-.137-17.548-4.028-22.7-12.933-40.141C96.993,33.52,97.582,25.656,91.956,21.759a17.854,17.854,0,0,0-8.135-2.816c-.486-.046-.933-.07-1.329-.077a12.481,12.481,0,0,0-1.8.084c-.444,0-.94.011-1.417.021v-.007l-2.072.028-2.451.035-1.322.018,0-.035H72.259c-18.086,0-21.46-1.2-35.493-2.3A66.068,66.068,0,0,1,10.75,9.178S-4.792,53.152,1.5,55.4s12.973,9.413,12.973,9.413c15.559,19.706,46.735,28.788,41.266,28.8s-7.407,1.038-8.4,8.744,12.355,8.392,12.355,8.392-1.077,2.661-.1,9.61c.292,2.063,2.12,2.792,4.546,2.792,5.746,0,14.846-4.062,14.846-4.062s-4.125,8.772,2.422,12.021a5.559,5.559,0,0,0,2.476.655c3.544,0,5.165-4.457,6.339-6.21.284-.429.554-.746.8-.746a.369.369,0,0,1,.11.018,7.8,7.8,0,0,1,1.032.44c.621.3,1.309.686,1.948,1.07,1.1.651,2.025,1.257,2.025,1.257,3.023,1.992,5.334,2.763,7.093,2.763,6.02,0,5.641-9.012,5.641-9.012s.671-4.414-1.776-10.715c-.342-.88-.751-1.8-1.227-2.749-.446-.894-.943-1.809-1.529-2.746a44.274,44.274,0,0,0-8.714-10.057c-15.29-13.317-16.8-19.917-16.8-19.917.317-6.027,3.033-7.565,5.731-7.565a9.531,9.531,0,0,1,2.524.384c.506.356,1.027.774,1.556,1.218.489.412.983.845,1.481,1.31a96.65,96.65,0,0,1,9.482,10.8l.19,1.482a33.065,33.065,0,0,1,.93,7.206l.83,6.46a42.6,42.6,0,0,1,6.09,8.674c.489.94.93,1.855,1.307,2.746.4.943.758,1.866,1.045,2.749l5.13-.007,36.69-.049c.681,0,1.239.82,1.239,1.83l.02,24.543-58.95.077,0-6.692c-.631-.387-1.314-.8-1.948-1.148-.187-.1-.379-.215-.551-.3-.03.06-.06.113-.087.165-.344.627-.781,1.4-1.307,2.186l.02,27.623c0,4.038,2.309,7.326,5.14,7.326h0l56.474-.074c2.831-.007,5.137-3.295,5.135-7.34l-.037-46.368C156.961,108.363,154.661,105.075,151.826,105.075Zm1.272,46.875,0,6.815c0,1.007-.556,1.834-1.239,1.834l-56.474.074c-.683,0-1.242-.82-1.242-1.834l0-6.812Z" transform="translate(-0.001 -9.178)"/>
    </g>
  </g>
</svg>
