<svg xmlns="http://www.w3.org/2000/svg" viewBox="1102 638 1980 461">
  <defs>
    <style>
      .cls-1 {
        fill: #fff;
      }

      .cls-2, .cls-3 {
        fill: #f5f5f5;
      }

      .cls-2 {
        stroke: #54abee;
      }

      .cls-17, .cls-4 {
        fill: #54abee;
      }

      .cls-5 {
        font-size: 29px;
        font-family: Lato-Regular, Lato;
      }

      .cls-6 {
        fill: #ff4f19;
      }

      .cls-7 {
        fill: #ffd200;
      }

      .cls-8 {
        fill: #53dcff;
      }

      .cls-9 {
        fill: #b9bbc1;
      }

      .cls-10 {
        fill: #e9001e;
      }

      .cls-11 {
        fill: #8b8996;
      }

      .cls-12 {
        fill: #3c97d3;
      }

      .cls-13 {
        fill: #b1d3ef;
      }

      .cls-14 {
        fill: #556080;
      }

      .cls-15, .cls-17 {
        stroke: none;
      }

      .cls-16 {
        fill: none;
      }
    </style>
  </defs>
  <g id="Group_48" data-name="Group 48" transform="translate(1102 9)">
    <rect id="Rectangle_6" data-name="Rectangle 6" class="cls-1" width="480" height="461" transform="translate(1000 629)"/>
    <g id="Ellipse_1" data-name="Ellipse 1" class="cls-2" transform="translate(1091 669)">
      <circle class="cls-15" cx="150" cy="150" r="150"/>
      <circle class="cls-16" cx="150" cy="150" r="149.5"/>
    </g>
    <g id="Group_45" data-name="Group 45">
      <g id="add-user" transform="translate(166 740)">
        <rect id="Rectangle_6-2" data-name="Rectangle 6" class="cls-1" width="480" height="461" transform="translate(-166 -111)"/>
        <g id="Path_30" data-name="Path 30" class="cls-3" transform="translate(-75 -71)">
          <path class="cls-15" d="M 150 299.5 C 139.8563079833984 299.5 129.7191162109375 298.4781188964844 119.870002746582 296.4627075195313 C 110.2714996337891 294.49853515625 100.830078125 291.5677795410156 91.80799865722656 287.7517700195313 C 82.94965362548828 284.0049743652344 74.40569305419922 279.3674621582031 66.41349792480469 273.9680480957031 C 58.49707794189453 268.6198425292969 51.0528450012207 262.477783203125 44.28753662109375 255.7124633789063 C 37.52223205566406 248.9471588134766 31.38015365600586 241.5029296875 26.03196144104004 233.5865325927734 C 20.63253784179688 225.5943450927734 15.99503803253174 217.0503845214844 12.24823093414307 208.1920013427734 C 8.432230949401855 199.1699676513672 5.501461505889893 189.7285308837891 3.537307739257813 180.1300048828125 C 1.521884560585022 170.2809295654297 0.5 160.1437377929688 0.5 150 C 0.5 139.8563079833984 1.521884560585022 129.7191162109375 3.537307739257813 119.870002746582 C 5.501461505889893 110.2714996337891 8.432230949401855 100.830078125 12.24823093414307 91.80799865722656 C 15.99503803253174 82.94965362548828 20.63253784179688 74.40569305419922 26.03196144104004 66.41349792480469 C 31.38015365600586 58.49707794189453 37.52223205566406 51.0528450012207 44.28753662109375 44.28753662109375 C 51.0528450012207 37.52223205566406 58.49707794189453 31.38015365600586 66.41349792480469 26.03196144104004 C 74.40569305419922 20.63253784179688 82.94965362548828 15.99503803253174 91.80799865722656 12.24823093414307 C 100.830078125 8.432230949401855 110.2714996337891 5.501461505889893 119.870002746582 3.537307739257813 C 129.7191162109375 1.521884560585022 139.8563079833984 0.5 150 0.5 C 160.1437377929688 0.5 170.2809295654297 1.521884560585022 180.1300048828125 3.537307739257813 C 189.7285308837891 5.501461505889893 199.1699676513672 8.432230949401855 208.1920013427734 12.24823093414307 C 217.0503845214844 15.99503803253174 225.5943450927734 20.63253784179688 233.5865325927734 26.03196144104004 C 241.5029296875 31.38015365600586 248.9471588134766 37.52223205566406 255.7124633789063 44.28753662109375 C 262.477783203125 51.0528450012207 268.6198425292969 58.49707794189453 273.9680480957031 66.41349792480469 C 279.3674621582031 74.40569305419922 284.0049743652344 82.94965362548828 287.7517700195313 91.80799865722656 C 291.5677795410156 100.830078125 294.49853515625 110.2714996337891 296.4627075195313 119.870002746582 C 298.4781188964844 129.7191162109375 299.5 139.8563079833984 299.5 150 C 299.5 160.1437377929688 298.4781188964844 170.2809295654297 296.4627075195313 180.1300048828125 C 294.49853515625 189.7285308837891 291.5677795410156 199.1699676513672 287.7517700195313 208.1920013427734 C 284.0049743652344 217.0503845214844 279.3674621582031 225.5943450927734 273.9680480957031 233.5865325927734 C 268.6198425292969 241.5029296875 262.477783203125 248.9471588134766 255.7124633789063 255.7124633789063 C 248.9471588134766 262.477783203125 241.5029296875 268.6198425292969 233.5865325927734 273.9680480957031 C 225.5943450927734 279.3674621582031 217.0503845214844 284.0049743652344 208.1920013427734 287.7517700195313 C 199.1699676513672 291.5677795410156 189.7285308837891 294.49853515625 180.1300048828125 296.4627075195313 C 170.2809295654297 298.4781188964844 160.1437377929688 299.5 150 299.5 Z"/>
          <path class="cls-17" d="M 150 299 C 160.1101226806641 299 170.2135772705078 297.9815063476563 180.0297698974609 295.9728393554688 C 189.5959625244141 294.0153198242188 199.0055694580078 291.0944213867188 207.9972381591797 287.291259765625 C 216.8258819580078 283.5570373535156 225.3411865234375 278.9350891113281 233.3066101074219 273.5537414550781 C 241.1966552734375 268.2233581542969 248.6161193847656 262.1017456054688 255.3589172363281 255.3589172363281 C 262.1017456054688 248.6161193847656 268.2233581542969 241.1966552734375 273.5537414550781 233.3066101074219 C 278.9350891113281 225.3411865234375 283.5570373535156 216.8258819580078 287.291259765625 207.9972381591797 C 291.0944213867188 199.0055694580078 294.0153198242188 189.5959625244141 295.9728393554688 180.0297698974609 C 297.9815063476563 170.2135772705078 299 160.1101226806641 299 150 C 299 139.8898773193359 297.9815063476563 129.7864227294922 295.9728393554688 119.9702301025391 C 294.0153198242188 110.4040756225586 291.0944213867188 100.9944610595703 287.291259765625 92.0028076171875 C 283.5570373535156 83.17415618896484 278.9350891113281 74.65884399414063 273.5537414550781 66.69338226318359 C 268.2233581542969 58.8033447265625 262.1017456054688 51.38388442993164 255.3589172363281 44.64111709594727 C 248.6161193847656 37.89830780029297 241.1966552734375 31.77665328979492 233.3066101074219 26.44626998901367 C 225.3411865234375 21.06492233276367 216.8258819580078 16.44296073913574 207.9972381591797 12.70876884460449 C 199.0055694580078 8.90561580657959 189.5959625244141 5.984692096710205 180.0297698974609 4.027153968811035 C 170.2135772705078 2.018500089645386 160.1101226806641 1 150 1 C 139.8898773193359 1 129.7864227294922 2.018500089645386 119.9702301025391 4.027153968811035 C 110.4040756225586 5.984692096710205 100.9944610595703 8.90561580657959 92.0028076171875 12.70876884460449 C 83.17415618896484 16.44296073913574 74.65884399414063 21.06492233276367 66.69338226318359 26.44626998901367 C 58.8033447265625 31.77665328979492 51.38388442993164 37.89830780029297 44.64111709594727 44.64111709594727 C 37.89830780029297 51.38388442993164 31.77665328979492 58.8033447265625 26.44626998901367 66.69338226318359 C 21.06492233276367 74.65884399414063 16.44296073913574 83.17415618896484 12.70876884460449 92.0028076171875 C 8.90561580657959 100.9944610595703 5.984692096710205 110.4040756225586 4.027153968811035 119.9702301025391 C 2.018500089645386 129.7864227294922 1 139.8898773193359 1 150 C 1 160.1101226806641 2.018500089645386 170.2135772705078 4.027153968811035 180.0297698974609 C 5.984692096710205 189.5959625244141 8.90561580657959 199.0055694580078 12.70876884460449 207.9972381591797 C 16.44296073913574 216.8258819580078 21.06492233276367 225.3411865234375 26.44626998901367 233.3066101074219 C 31.77665328979492 241.1966552734375 37.89830780029297 248.6161193847656 44.64111709594727 255.3589172363281 C 51.38388442993164 262.1017456054688 58.8033447265625 268.2233581542969 66.69338226318359 273.5537414550781 C 74.65884399414063 278.9350891113281 83.17415618896484 283.5570373535156 92.0028076171875 287.291259765625 C 100.9944610595703 291.0944213867188 110.4040756225586 294.0153198242188 119.9702301025391 295.9728393554688 C 129.7864227294922 297.9815063476563 139.8898773193359 299 150 299 M 150 300 C 67.15731048583984 300 0 232.8427276611328 0 150 C 0 67.15731048583984 67.15731048583984 0 150 0 C 232.8427276611328 0 300 67.15731048583984 300 150 C 300 232.8427276611328 232.8427276611328 300 150 300 Z"/>
        </g>
        <g id="Group_6" data-name="Group 6" transform="translate(0)">
          <g id="Group_5" data-name="Group 5">
            <path id="Path_5" data-name="Path 5" class="cls-4" d="M108.252,79.2A74.675,74.675,0,0,0,99.39,75.48a42.568,42.568,0,0,0,16.057-33.551C115.447,18.809,97.48,0,75.394,0S35.341,18.809,35.341,41.928a42.567,42.567,0,0,0,16.09,33.577,75.6,75.6,0,0,0-24.681,14.2A81.159,81.159,0,0,0,.383,135.257a19.382,19.382,0,0,0,3.641,15.695,17.487,17.487,0,0,0,13.851,6.9H90.414a6.172,6.172,0,0,0,0-12.332H17.875a5.9,5.9,0,0,1-4.712-2.345,6.668,6.668,0,0,1-1.248-5.4c6.113-30.736,32.01-53.188,61.917-53.945q.777.031,1.561.031t1.577-.032A61.82,61.82,0,0,1,103.2,90.342a5.778,5.778,0,0,0,7.848-2.922A6.294,6.294,0,0,0,108.252,79.2ZM76.831,71.487q-.717-.013-1.437-.014t-1.425.014c-14.93-.78-26.847-13.74-26.847-29.559,0-16.32,12.683-29.6,28.273-29.6s28.273,13.277,28.273,29.6C103.667,57.744,91.756,70.7,76.831,71.487Z" transform="translate(0)"/>
          </g>
        </g>
        <g id="Group_8" data-name="Group 8" transform="translate(94.832 99.272)">
          <g id="Group_7" data-name="Group 7">
            <path id="Path_6" data-name="Path 6" class="cls-4" d="M372.066,345.122h-16.2V328.166a5.9,5.9,0,1,0-11.78,0v16.956h-16.2a6.172,6.172,0,0,0,0,12.332h16.2v16.956a5.9,5.9,0,1,0,11.78,0V357.454h16.2a6.172,6.172,0,0,0,0-12.332Z" transform="translate(-322 -322)"/>
          </g>
        </g>
      </g>
      <text id="SIGNUP_OR_LOGIN" data-name="SIGNUP OR LOGIN" class="cls-5" transform="translate(115 1020)"><tspan x="0" y="0">SIGNUP OR LOGIN</tspan></text>
    </g>
    <text id="PAY_ONLINE_THROUGH_OUR_SECURE_GATEWAY" data-name="PAY ONLINE THROUGH
 OUR SECURE GATEWAY" class="cls-5" transform="translate(1242 1003)"><tspan x="-158.427" y="0">PAY ONLINE THROUGH</tspan><tspan x="-164.792" y="35" xml:space="preserve"> OUR SECURE GATEWAY</tspan></text>
    <g id="Group_46" data-name="Group 46">
      <rect id="Rectangle_6-3" data-name="Rectangle 6" class="cls-1" width="480" height="461" transform="translate(500 629)"/>
      <g id="Ellipse_1-2" data-name="Ellipse 1" class="cls-2" transform="translate(591 669)">
        <circle class="cls-15" cx="150" cy="150" r="150"/>
        <circle class="cls-16" cx="150" cy="150" r="149.5"/>
      </g>
      <text id="GIVE_US_DETAILS_ON_YOUR_PROJEC_T" data-name="GIVE US DETAILS 
ON YOUR PROJEC T" class="cls-5" transform="translate(742 1003)"><tspan x="-118.646" y="0">GIVE US DETAILS </tspan><tspan x="-133.958" y="35">ON YOUR PROJEC T</tspan></text>
      <g id="Group_41" data-name="Group 41" transform="translate(663 741)">
        <g id="Group_9" data-name="Group 9" transform="translate(14.719 13.954)">
          <path id="Path_29" data-name="Path 29" class="cls-1" d="M0,0H127.563V111.635H0Z"/>
        </g>
        <g id="Group_10" data-name="Group 10" transform="translate(14.719 13.954)">
          <rect id="Rectangle_8" data-name="Rectangle 8" class="cls-6" width="127.563" height="27.909"/>
        </g>
        <path id="Path_7" data-name="Path 7" class="cls-4" d="M151.883,75.984H27.3c-6.231,0-11.3,7.192-11.3,16.033v127c0,1.928,1.1,3.489,2.453,3.489H160.735c1.356,0,2.453-1.56,2.453-3.489v-127C163.188,83.176,158.116,75.984,151.883,75.984Zm-126.07,122.1V93.427c0-1.927,1.1-3.489,2.453-3.489H150.922c1.355,0,2.453,1.562,2.453,3.489V198.085c0,1.927-1.1,3.489-2.453,3.489H28.266C26.911,201.573,25.813,200.011,25.813,198.085Z" transform="translate(-11.094 -75.984)"/>
        <g id="Group_12" data-name="Group 12" transform="translate(0 139.544)">
          <path id="Path_8" data-name="Path 8" class="cls-4" d="M154.547,395.984H2.453C1.1,395.984,0,397.544,0,399.473H0c0,7.7,4.406,13.968,9.822,13.968H147.178c5.417,0,9.822-6.265,9.822-13.968h0C157,397.544,155.9,395.984,154.547,395.984Z" transform="translate(0 -395.984)"/>
        </g>
        <g id="Group_14" data-name="Group 14" transform="translate(24.531 24.42)">
          <g id="Group_13" data-name="Group 13">
            <path id="Path_9" data-name="Path 9" class="cls-7" d="M99.625,138.961H82.453c-1.356,0-2.453-1.56-2.453-3.489s1.1-3.489,2.453-3.489H99.625c1.356,0,2.453,1.56,2.453,3.489S100.981,138.961,99.625,138.961Z" transform="translate(-80 -131.984)"/>
          </g>
        </g>
        <g id="Group_16" data-name="Group 16" transform="translate(83.406 24.42)">
          <g id="Group_15" data-name="Group 15">
            <path id="Path_10" data-name="Path 10" class="cls-1" d="M276.906,138.961h-2.453c-1.356,0-2.453-1.56-2.453-3.489s1.1-3.489,2.453-3.489h2.453c1.356,0,2.453,1.56,2.453,3.489S278.262,138.961,276.906,138.961Z" transform="translate(-272 -131.984)"/>
          </g>
        </g>
        <g id="Group_18" data-name="Group 18" transform="translate(95.672 24.42)">
          <g id="Group_17" data-name="Group 17">
            <path id="Path_11" data-name="Path 11" class="cls-1" d="M316.906,138.961h-2.453c-1.356,0-2.453-1.56-2.453-3.489s1.1-3.489,2.453-3.489h2.453c1.356,0,2.453,1.56,2.453,3.489S318.262,138.961,316.906,138.961Z" transform="translate(-312 -131.984)"/>
          </g>
        </g>
        <g id="Group_20" data-name="Group 20" transform="translate(107.938 24.42)">
          <g id="Group_19" data-name="Group 19">
            <path id="Path_12" data-name="Path 12" class="cls-1" d="M356.906,138.961h-2.453c-1.356,0-2.453-1.56-2.453-3.489s1.1-3.489,2.453-3.489h2.453c1.356,0,2.453,1.56,2.453,3.489S358.262,138.961,356.906,138.961Z" transform="translate(-352 -131.984)"/>
          </g>
        </g>
        <g id="Group_22" data-name="Group 22" transform="translate(120.203 24.42)">
          <g id="Group_21" data-name="Group 21">
            <path id="Path_13" data-name="Path 13" class="cls-1" d="M396.906,138.961h-2.453c-1.356,0-2.453-1.56-2.453-3.489s1.1-3.489,2.453-3.489h2.453c1.356,0,2.453,1.56,2.453,3.489S398.262,138.961,396.906,138.961Z" transform="translate(-392 -131.984)"/>
          </g>
        </g>
        <g id="Group_23" data-name="Group 23" transform="translate(24.531 52.329)">
          <path id="Path_14" data-name="Path 14" class="cls-8" d="M124.156,258.779h-41.7c-1.355,0-2.453-1.562-2.453-3.489V199.473c0-1.927,1.1-3.489,2.453-3.489h41.7c1.355,0,2.453,1.562,2.453,3.489V255.29C126.609,257.217,125.511,258.779,124.156,258.779Z" transform="translate(-80 -195.984)"/>
        </g>
        <g id="Group_25" data-name="Group 25" transform="translate(78.5 52.329)">
          <g id="Group_24" data-name="Group 24">
            <path id="Path_15" data-name="Path 15" class="cls-6" d="M305.063,202.961H258.453c-1.356,0-2.453-1.56-2.453-3.489s1.1-3.489,2.453-3.489h46.609c1.356,0,2.453,1.56,2.453,3.489S306.419,202.961,305.063,202.961Z" transform="translate(-256 -195.984)"/>
          </g>
        </g>
        <g id="Group_27" data-name="Group 27" transform="translate(78.5 80.238)">
          <g id="Group_26" data-name="Group 26">
            <path id="Path_16" data-name="Path 16" class="cls-9" d="M278.078,266.961H258.453c-1.356,0-2.453-1.56-2.453-3.489s1.1-3.489,2.453-3.489h19.625c1.356,0,2.453,1.56,2.453,3.489S279.434,266.961,278.078,266.961Z" transform="translate(-256 -259.984)"/>
          </g>
        </g>
        <g id="Group_29" data-name="Group 29" transform="translate(78.5 94.192)">
          <g id="Group_28" data-name="Group 28">
            <path id="Path_17" data-name="Path 17" class="cls-9" d="M278.078,298.961H258.453c-1.356,0-2.453-1.56-2.453-3.489s1.1-3.489,2.453-3.489h19.625c1.356,0,2.453,1.56,2.453,3.489S279.434,298.961,278.078,298.961Z" transform="translate(-256 -291.984)"/>
          </g>
        </g>
        <g id="Group_31" data-name="Group 31" transform="translate(78.5 108.146)">
          <g id="Group_30" data-name="Group 30">
            <path id="Path_18" data-name="Path 18" class="cls-9" d="M278.078,330.961H258.453c-1.356,0-2.453-1.56-2.453-3.489s1.1-3.489,2.453-3.489h19.625c1.356,0,2.453,1.56,2.453,3.489S279.434,330.961,278.078,330.961Z" transform="translate(-256 -323.984)"/>
          </g>
        </g>
        <g id="Group_33" data-name="Group 33" transform="translate(107.938 80.238)">
          <g id="Group_32" data-name="Group 32">
            <path id="Path_19" data-name="Path 19" class="cls-9" d="M374.078,266.961H354.453c-1.356,0-2.453-1.56-2.453-3.489s1.1-3.489,2.453-3.489h19.625c1.356,0,2.453,1.56,2.453,3.489S375.434,266.961,374.078,266.961Z" transform="translate(-352 -259.984)"/>
          </g>
        </g>
        <g id="Group_35" data-name="Group 35" transform="translate(107.938 94.192)">
          <g id="Group_34" data-name="Group 34">
            <path id="Path_20" data-name="Path 20" class="cls-9" d="M374.078,298.961H354.453c-1.356,0-2.453-1.56-2.453-3.489s1.1-3.489,2.453-3.489h19.625c1.356,0,2.453,1.56,2.453,3.489S375.434,298.961,374.078,298.961Z" transform="translate(-352 -291.984)"/>
          </g>
        </g>
        <g id="Group_37" data-name="Group 37" transform="translate(107.938 108.146)">
          <g id="Group_36" data-name="Group 36">
            <path id="Path_21" data-name="Path 21" class="cls-9" d="M374.078,330.961H354.453c-1.356,0-2.453-1.56-2.453-3.489s1.1-3.489,2.453-3.489h19.625c1.356,0,2.453,1.56,2.453,3.489S375.434,330.961,374.078,330.961Z" transform="translate(-352 -323.984)"/>
          </g>
        </g>
        <g id="Group_39" data-name="Group 39" transform="translate(78.5 66.283)">
          <g id="Group_38" data-name="Group 38">
            <path id="Path_22" data-name="Path 22" class="cls-10" d="M290.344,234.961H258.453c-1.356,0-2.453-1.56-2.453-3.489s1.1-3.489,2.453-3.489h31.891c1.356,0,2.453,1.56,2.453,3.489S291.7,234.961,290.344,234.961Z" transform="translate(-256 -227.984)"/>
          </g>
        </g>
        <g id="Group_40" data-name="Group 40" transform="translate(63.781 139.544)">
          <path id="Path_23" data-name="Path 23" class="cls-11" d="M212.906,402.961h19.625c2.709,0,4.906-3.124,4.906-6.977H208C208,399.838,210.2,402.961,212.906,402.961Z" transform="translate(-208 -395.984)"/>
        </g>
      </g>
    </g>
    <g id="Group_42" data-name="Group 42" transform="translate(1163 740.697)">
      <path id="Path_24" data-name="Path 24" class="cls-4" d="M151.826,105.075l-36.016.049c.3-4.759.117-10.61.05-19.847-.137-17.548-4.028-22.7-12.933-40.141C96.993,33.52,97.582,25.656,91.956,21.759a17.854,17.854,0,0,0-8.135-2.816c-.486-.046-.933-.07-1.329-.077a12.481,12.481,0,0,0-1.8.084c-.444,0-.94.011-1.417.021v-.007l-2.072.028-2.451.035-1.322.018,0-.035H72.259c-18.086,0-21.46-1.2-35.493-2.3A66.068,66.068,0,0,1,10.75,9.178S-4.792,53.152,1.5,55.4s12.973,9.413,12.973,9.413c15.559,19.706,46.735,28.788,41.266,28.8s-7.407,1.038-8.4,8.744,12.355,8.392,12.355,8.392-1.077,2.661-.1,9.61c.292,2.063,2.12,2.792,4.546,2.792,5.746,0,14.846-4.062,14.846-4.062s-4.125,8.772,2.422,12.021a5.559,5.559,0,0,0,2.476.655c3.544,0,5.165-4.457,6.339-6.21.284-.429.554-.746.8-.746a.369.369,0,0,1,.11.018,7.8,7.8,0,0,1,1.032.44c.621.3,1.309.686,1.948,1.07,1.1.651,2.025,1.257,2.025,1.257,3.023,1.992,5.334,2.763,7.093,2.763,6.02,0,5.641-9.012,5.641-9.012s.671-4.414-1.776-10.715c-.342-.88-.751-1.8-1.227-2.749-.446-.894-.943-1.809-1.529-2.746a44.274,44.274,0,0,0-8.714-10.057c-15.29-13.317-16.8-19.917-16.8-19.917.317-6.027,3.033-7.565,5.731-7.565a9.531,9.531,0,0,1,2.524.384c.506.356,1.027.774,1.556,1.218.489.412.983.845,1.481,1.31a96.65,96.65,0,0,1,9.482,10.8l.19,1.482a33.065,33.065,0,0,1,.93,7.206l.83,6.46a42.6,42.6,0,0,1,6.09,8.674c.489.94.93,1.855,1.307,2.746.4.943.758,1.866,1.045,2.749l5.13-.007,36.69-.049c.681,0,1.239.82,1.239,1.83l.02,24.543-58.95.077,0-6.692c-.631-.387-1.314-.8-1.948-1.148-.187-.1-.379-.215-.551-.3-.03.06-.06.113-.087.165-.344.627-.781,1.4-1.307,2.186l.02,27.623c0,4.038,2.309,7.326,5.14,7.326h0l56.474-.074c2.831-.007,5.137-3.295,5.135-7.34l-.037-46.368C156.961,108.363,154.661,105.075,151.826,105.075Zm1.272,46.875,0,6.815c0,1.007-.556,1.834-1.239,1.834l-56.474.074c-.683,0-1.242-.82-1.242-1.834l0-6.812Z" transform="translate(-0.001 -9.178)"/>
    </g>
    <g id="Group_47" data-name="Group 47">
      <rect id="Rectangle_6-4" data-name="Rectangle 6" class="cls-1" width="480" height="461" transform="translate(1500 629)"/>
      <g id="Path_28" data-name="Path 28" class="cls-3" transform="translate(1591 669)">
        <path class="cls-15" d="M 150 299.5 C 139.8563079833984 299.5 129.7191162109375 298.4781188964844 119.870002746582 296.4627075195313 C 110.2714996337891 294.49853515625 100.830078125 291.5677795410156 91.80799865722656 287.7517700195313 C 82.94965362548828 284.0049743652344 74.40569305419922 279.3674621582031 66.41349792480469 273.9680480957031 C 58.49707794189453 268.6198425292969 51.0528450012207 262.477783203125 44.28753662109375 255.7124633789063 C 37.52223205566406 248.9471588134766 31.38015365600586 241.5029296875 26.03196144104004 233.5865325927734 C 20.63253784179688 225.5943450927734 15.99503803253174 217.0503845214844 12.24823093414307 208.1920013427734 C 8.432230949401855 199.1699676513672 5.501461505889893 189.7285308837891 3.537307739257813 180.1300048828125 C 1.521884560585022 170.2809295654297 0.5 160.1437377929688 0.5 150 C 0.5 139.8563079833984 1.521884560585022 129.7191162109375 3.537307739257813 119.870002746582 C 5.501461505889893 110.2714996337891 8.432230949401855 100.830078125 12.24823093414307 91.80799865722656 C 15.99503803253174 82.94965362548828 20.63253784179688 74.40569305419922 26.03196144104004 66.41349792480469 C 31.38015365600586 58.49707794189453 37.52223205566406 51.0528450012207 44.28753662109375 44.28753662109375 C 51.0528450012207 37.52223205566406 58.49707794189453 31.38015365600586 66.41349792480469 26.03196144104004 C 74.40569305419922 20.63253784179688 82.94965362548828 15.99503803253174 91.80799865722656 12.24823093414307 C 100.830078125 8.432230949401855 110.2714996337891 5.501461505889893 119.870002746582 3.537307739257813 C 129.7191162109375 1.521884560585022 139.8563079833984 0.5 150 0.5 C 160.1437377929688 0.5 170.2809295654297 1.521884560585022 180.1300048828125 3.537307739257813 C 189.7285308837891 5.501461505889893 199.1699676513672 8.432230949401855 208.1920013427734 12.24823093414307 C 217.0503845214844 15.99503803253174 225.5943450927734 20.63253784179688 233.5865325927734 26.03196144104004 C 241.5029296875 31.38015365600586 248.9471588134766 37.52223205566406 255.7124633789063 44.28753662109375 C 262.477783203125 51.0528450012207 268.6198425292969 58.49707794189453 273.9680480957031 66.41349792480469 C 279.3674621582031 74.40569305419922 284.0049743652344 82.94965362548828 287.7517700195313 91.80799865722656 C 291.5677795410156 100.830078125 294.49853515625 110.2714996337891 296.4627075195313 119.870002746582 C 298.4781188964844 129.7191162109375 299.5 139.8563079833984 299.5 150 C 299.5 160.1437377929688 298.4781188964844 170.2809295654297 296.4627075195313 180.1300048828125 C 294.49853515625 189.7285308837891 291.5677795410156 199.1699676513672 287.7517700195313 208.1920013427734 C 284.0049743652344 217.0503845214844 279.3674621582031 225.5943450927734 273.9680480957031 233.5865325927734 C 268.6198425292969 241.5029296875 262.477783203125 248.9471588134766 255.7124633789063 255.7124633789063 C 248.9471588134766 262.477783203125 241.5029296875 268.6198425292969 233.5865325927734 273.9680480957031 C 225.5943450927734 279.3674621582031 217.0503845214844 284.0049743652344 208.1920013427734 287.7517700195313 C 199.1699676513672 291.5677795410156 189.7285308837891 294.49853515625 180.1300048828125 296.4627075195313 C 170.2809295654297 298.4781188964844 160.1437377929688 299.5 150 299.5 Z"/>
        <path class="cls-17" d="M 150 299 C 160.1101226806641 299 170.2135772705078 297.9815063476563 180.0297698974609 295.9728393554688 C 189.5959625244141 294.0153198242188 199.0055694580078 291.0944213867188 207.9972381591797 287.291259765625 C 216.8258819580078 283.5570373535156 225.3411865234375 278.9350891113281 233.3066101074219 273.5537414550781 C 241.1966552734375 268.2233581542969 248.6161193847656 262.1017456054688 255.3589172363281 255.3589172363281 C 262.1017456054688 248.6161193847656 268.2233581542969 241.1966552734375 273.5537414550781 233.3066101074219 C 278.9350891113281 225.3411865234375 283.5570373535156 216.8258819580078 287.291259765625 207.9972381591797 C 291.0944213867188 199.0055694580078 294.0153198242188 189.5959625244141 295.9728393554688 180.0297698974609 C 297.9815063476563 170.2135772705078 299 160.1101226806641 299 150 C 299 139.8898773193359 297.9815063476563 129.7864227294922 295.9728393554688 119.9702301025391 C 294.0153198242188 110.4040756225586 291.0944213867188 100.9944610595703 287.291259765625 92.0028076171875 C 283.5570373535156 83.17415618896484 278.9350891113281 74.65884399414063 273.5537414550781 66.69338226318359 C 268.2233581542969 58.8033447265625 262.1017456054688 51.38388442993164 255.3589172363281 44.64111709594727 C 248.6161193847656 37.89830780029297 241.1966552734375 31.77665328979492 233.3066101074219 26.44626998901367 C 225.3411865234375 21.06492233276367 216.8258819580078 16.44296073913574 207.9972381591797 12.70876884460449 C 199.0055694580078 8.90561580657959 189.5959625244141 5.984692096710205 180.0297698974609 4.027153968811035 C 170.2135772705078 2.018500089645386 160.1101226806641 1 150 1 C 139.8898773193359 1 129.7864227294922 2.018500089645386 119.9702301025391 4.027153968811035 C 110.4040756225586 5.984692096710205 100.9944610595703 8.90561580657959 92.0028076171875 12.70876884460449 C 83.17415618896484 16.44296073913574 74.65884399414063 21.06492233276367 66.69338226318359 26.44626998901367 C 58.8033447265625 31.77665328979492 51.38388442993164 37.89830780029297 44.64111709594727 44.64111709594727 C 37.89830780029297 51.38388442993164 31.77665328979492 58.8033447265625 26.44626998901367 66.69338226318359 C 21.06492233276367 74.65884399414063 16.44296073913574 83.17415618896484 12.70876884460449 92.0028076171875 C 8.90561580657959 100.9944610595703 5.984692096710205 110.4040756225586 4.027153968811035 119.9702301025391 C 2.018500089645386 129.7864227294922 1 139.8898773193359 1 150 C 1 160.1101226806641 2.018500089645386 170.2135772705078 4.027153968811035 180.0297698974609 C 5.984692096710205 189.5959625244141 8.90561580657959 199.0055694580078 12.70876884460449 207.9972381591797 C 16.44296073913574 216.8258819580078 21.06492233276367 225.3411865234375 26.44626998901367 233.3066101074219 C 31.77665328979492 241.1966552734375 37.89830780029297 248.6161193847656 44.64111709594727 255.3589172363281 C 51.38388442993164 262.1017456054688 58.8033447265625 268.2233581542969 66.69338226318359 273.5537414550781 C 74.65884399414063 278.9350891113281 83.17415618896484 283.5570373535156 92.0028076171875 287.291259765625 C 100.9944610595703 291.0944213867188 110.4040756225586 294.0153198242188 119.9702301025391 295.9728393554688 C 129.7864227294922 297.9815063476563 139.8898773193359 299 150 299 M 150 300 C 67.15731048583984 300 0 232.8427276611328 0 150 C 0 67.15731048583984 67.15731048583984 0 150 0 C 232.8427276611328 0 300 67.15731048583984 300 150 C 300 232.8427276611328 232.8427276611328 300 150 300 Z"/>
      </g>
      <text id="GET_IT_DONE_IN_48_HRS" data-name="GET IT DONE IN 48 HRS" class="cls-5" transform="translate(1740 1020)"><tspan x="-159.891" y="0">GET IT DONE IN 48 HRS</tspan></text>
      <g id="Group_43" data-name="Group 43" transform="translate(1663 741)">
        <circle id="Ellipse_2" data-name="Ellipse 2" class="cls-12" cx="75.883" cy="75.883" r="75.883" transform="translate(2.617)"/>
        <path id="Path_25" data-name="Path 25" class="cls-13" d="M78.5,157A78.5,78.5,0,0,1,22.893,23.089a5.233,5.233,0,0,1,7.416,7.384A68.034,68.034,0,1,0,83.733,10.666V38.813a5.233,5.233,0,0,1-10.467,0V5.233A5.235,5.235,0,0,1,78.5,0a78.5,78.5,0,0,1,0,157Z"/>
        <path id="Path_26" data-name="Path 26" class="cls-13" d="M20,20.121h0l33.87,24.5a6.708,6.708,0,0,1,.8,10.168h0a6.708,6.708,0,0,1-10.168-.8Z" transform="translate(32.333 32.529)"/>
      </g>
      <g id="Group_44" data-name="Group 44" transform="translate(1758.433 853.384)">
        <circle id="Ellipse_3" data-name="Ellipse 3" class="cls-14" cx="28.783" cy="28.783" r="28.783"/>
        <path id="Path_27" data-name="Path 27" class="cls-1" d="M66.317,57.681H53.233V44.6A2.617,2.617,0,1,0,48,44.6V60.3a2.616,2.616,0,0,0,2.617,2.617h15.7a2.617,2.617,0,0,0,0-5.233Z" transform="translate(-21.833 -31.514)"/>
      </g>
    </g>
  </g>
</svg>
