<svg xmlns="http://www.w3.org/2000/svg" viewBox="3198 459 640 640">
  <defs>
    <style>
      .cls-1, .cls-3 {
        fill: #afafaf;
      }

      .cls-1, .cls-3, .cls-5 {
        stroke: #707070;
      }

      .cls-2 {
        fill: #f5f5f5;
      }

      .cls-3 {
        stroke-width: 0.665px;
      }

      .cls-4 {
        fill: #8e8e8e;
        font-family: Lato-Regular, Lato;
      }

      .cls-4, .cls-6 {
        font-size: 60px;
      }

      .cls-5 {
        fill: #fcec03;
      }

      .cls-6 {
        font-family: Lato-ExtraBold, Lato;
        font-weight: 800;
      }

      .cls-7 {
        stroke: none;
      }

      .cls-8 {
        fill: none;
      }
    </style>
  </defs>
  <g id="Group_145" data-name="Group 145" transform="translate(3198 19)">
    <g id="Rectangle_10" data-name="Rectangle 10" class="cls-1" transform="translate(108 511)">
      <rect class="cls-7" width="424" height="335"/>
      <rect class="cls-8" x="0.5" y="0.5" width="423" height="334"/>
    </g>
    <g id="Group_141" data-name="Group 141">
      <rect id="Rectangle_9" data-name="Rectangle 9" class="cls-2" width="640" height="640" transform="translate(0 440)"/>
      <g id="Group_140" data-name="Group 140">
        <g id="Group_128" data-name="Group 128" transform="translate(31)">
          <path id="Path_77" data-name="Path 77" class="cls-3" d="M280.537,2.845H4.463A4.5,4.5,0,0,0,0,7.383V283.307a4.5,4.5,0,0,0,4.463,4.538H280.537A4.5,4.5,0,0,0,285,283.307V7.383A4.5,4.5,0,0,0,280.537,2.845Zm-4.462,275.923H8.925V70.011h267.15V278.769Zm0-217.835H8.925V11.921h267.15V60.934Z" transform="translate(149.655 508.155)"/>
          <path id="Path_78" data-name="Path 78" class="cls-3" d="M273.042,25.6H220.683a4.539,4.539,0,0,0,0,9.077h52.359a4.539,4.539,0,0,0,0-9.077Z" transform="translate(114.31 504.758)"/>
          <path id="Path_79" data-name="Path 79" class="cls-3" d="M309.863,25.6h-9.52a4.539,4.539,0,0,0,0,9.077h9.52a4.539,4.539,0,0,0,0-9.077Z" transform="translate(101.289 504.758)"/>
          <path id="Path_80" data-name="Path 80" class="cls-3" d="M172.373,19.915a19.063,19.063,0,1,0,18.742,19.06A18.925,18.925,0,0,0,172.373,19.915Zm0,29.045a9.986,9.986,0,1,1,9.817-9.984A9.913,9.913,0,0,1,172.373,48.96Z" transform="translate(124.542 505.607)"/>
          <path id="Path_81" data-name="Path 81" class="cls-3" d="M109.783,19.915a19.063,19.063,0,1,0,18.742,19.06A18.925,18.925,0,0,0,109.783,19.915Zm0,29.045a9.986,9.986,0,1,1,9.817-9.984A9.913,9.913,0,0,1,109.783,48.96Z" transform="translate(134.773 505.607)"/>
          <path id="Path_82" data-name="Path 82" class="cls-3" d="M47.192,19.915a19.063,19.063,0,1,0,18.742,19.06A18.925,18.925,0,0,0,47.192,19.915Zm0,29.045a9.986,9.986,0,1,1,9.817-9.984A9.913,9.913,0,0,1,47.192,48.96Z" transform="translate(145.004 505.607)"/>
          <path id="Path_83" data-name="Path 83" class="cls-3" d="M98.305,151.964a13.653,13.653,0,0,0-3.664-9.732,13.23,13.23,0,0,0-18.926-.52L30.5,185.279a13.772,13.772,0,0,0,.281,20.03L76,246.455a13.239,13.239,0,0,0,8.922,3.468h0a13.308,13.308,0,0,0,9.98-4.537,13.793,13.793,0,0,0-1.05-19.225L59.467,194.876l34.664-33.4A13.633,13.633,0,0,0,98.305,151.964ZM87.991,154.89,49.809,191.677a4.592,4.592,0,0,0,.094,6.677l38,34.573a4.6,4.6,0,0,1,.351,6.408,4.41,4.41,0,0,1-6.3.356L36.728,198.544a4.59,4.59,0,0,1-.094-6.676L81.853,148.3a4.392,4.392,0,0,1,3.066-1.244l.124,0a4.4,4.4,0,0,1,3.119,1.415,4.594,4.594,0,0,1-.17,6.416Z" transform="translate(145.353 487.985)"/>
          <path id="Path_84" data-name="Path 84" class="cls-3" d="M296.127,185.28l-45.219-43.567a13.246,13.246,0,0,0-18.926.52,13.8,13.8,0,0,0,.512,19.247l34.664,33.4-34.383,31.286a13.794,13.794,0,0,0-1.05,19.225,13.31,13.31,0,0,0,9.979,4.536h0a13.237,13.237,0,0,0,8.922-3.468l45.219-41.147a13.774,13.774,0,0,0,.281-20.03Zm-6.232,13.266-45.219,41.147a4.409,4.409,0,0,1-2.972,1.157h0a4.38,4.38,0,0,1-3.328-1.512,4.6,4.6,0,0,1,.35-6.409l37.995-34.573a4.592,4.592,0,0,0,.094-6.677l-38.182-36.787a4.6,4.6,0,0,1-.171-6.416,4.415,4.415,0,0,1,6.308-.173l45.219,43.567a4.587,4.587,0,0,1,1.393,3.359h0A4.575,4.575,0,0,1,289.895,198.546Z" transform="translate(112.333 487.984)"/>
          <path id="Path_85" data-name="Path 85" class="cls-3" d="M197.425,153.748a13.5,13.5,0,0,0-6.247-8.259h0a13.283,13.283,0,0,0-18.281,5.006l-45.219,79.873a13.757,13.757,0,0,0,4.922,18.592,13.225,13.225,0,0,0,6.67,1.817,13.391,13.391,0,0,0,11.61-6.823L196.1,164.081A13.729,13.729,0,0,0,197.425,153.748Zm-9.06,5.8-45.219,79.873a4.469,4.469,0,0,1-3.876,2.275,4.339,4.339,0,0,1-2.218-.606,4.586,4.586,0,0,1-1.641-6.2l45.22-79.873a4.451,4.451,0,0,1,3.875-2.272,4.378,4.378,0,0,1,2.219.6,4.5,4.5,0,0,1,2.082,2.752A4.574,4.574,0,0,1,188.365,159.551Z" transform="translate(129.075 487.135)"/>
        </g>
        <text id="Web_Development" data-name="Web Development" class="cls-4" transform="translate(313 868)"><tspan x="-247.41" y="0">Web Development</tspan></text>
        <g id="Group_130" data-name="Group 130" transform="translate(-639 10)">
          <g id="Rectangle_325" data-name="Rectangle 325" class="cls-5" transform="translate(771 894)">
            <rect class="cls-7" width="379" height="120" rx="60"/>
            <rect class="cls-8" x="0.5" y="0.5" width="378" height="119" rx="59.5"/>
          </g>
          <text id="N65_000" data-name="N65,000" class="cls-6" transform="translate(965 977)"><tspan x="-117.51" y="0">N65,000</tspan></text>
        </g>
      </g>
    </g>
  </g>
</svg>
