<svg xmlns="http://www.w3.org/2000/svg" viewBox="3838 459 640 640">
  <defs>
    <style>
      .cls-1 {
        fill: #54abee;
      }

      .cls-2, .cls-3, .cls-4, .cls-5 {
        fill: #fff;
      }

      .cls-3 {
        font-size: 40px;
      }

      .cls-3, .cls-4 {
        font-family: Lato-Regular, Lato;
      }

      .cls-4 {
        font-size: 30px;
      }

      .cls-5 {
        stroke: #fff;
      }
    </style>
  </defs>
  <g id="Group_480" data-name="Group 480" transform="translate(3198 19)">
    <g id="Group_158" data-name="Group 158">
      <rect id="Rectangle_9" data-name="Rectangle 9" class="cls-1" width="640" height="640" transform="translate(640 440)"/>
      <path id="Path_86" data-name="Path 86" class="cls-2" d="M305.17.087l-30.379,20L244.239,82.743H219.671l-9.647-18.387h6.3c11.529,0,20.9-8.159,20.9-18.3V27.58h10.452V0H216.327V27.58h10.452V46.056c0,5.066-4.687,9.106-10.452,9.106H205.2l-13.359-25.42,16-7.015-52.4-19.739L143.129,40.907c-.335-22.561-21.276-40.824-47-40.824C70.189.083,49.091,18.64,49.091,41.454c0,13.786,7.938,26.716,20.9,34.361v6.927H57.338l-.815,3.77a91.2,91.2,0,0,0-.7,35.377l-35.653,55.9L59.543,185.7v57.933H111.8V285H237.23V220.944c36.582-22.763,57.476-59.363,57.445-98.408l.011-16.769a94.309,94.309,0,0,0-2-19.215l-.774-3.811H281.652L305.17,33.184V.087ZM226.778,18.474V9.281H237.23v9.194Zm-18.62,64.267H188.336l-9.5-18.387h19.677ZM162.231,15.56l20.774,7.829L178.1,25.5l15.584,29.659h-19.6L161.348,30.574l-4.677,2.077Zm14.623,67.183h-23.24V73.637c0-5.07,4.687-9.281,10.452-9.281h3.287ZM156.331,43.1l6.339,12.269c-10.871.644-19.509,8.541-19.509,18.263v9.106h-20.9V75.815c10.458-6.165,17.554-15.785,19.948-26.5ZM59.544,41.459c0-17.739,16.415-32.177,36.582-32.177s36.582,14.438,36.582,32.177c0,11.419-7.013,22.088-18.3,27.838l-2.608,1.323V82.742H101.353V54.4c6.068-1.9,10.452-6.96,10.452-12.945,0-7.6-7.035-13.791-15.679-13.791S80.448,33.851,80.448,41.454c0,5.985,4.384,11.041,10.452,12.945V82.743H80.448V70.62L77.84,69.292C66.557,63.541,59.544,52.877,59.544,41.459Zm36.582,4.6c-2.885,0-5.226-2.065-5.226-4.6s2.341-4.6,5.226-4.6,5.226,2.059,5.226,4.6S99.012,46.056,96.127,46.056ZM283.115,91.936a85.167,85.167,0,0,1,1.14,13.79l.011,16.8c.032,36.825-20.627,71.309-55.188,92.239l-2.3,1.379v59.662H122.258V234.436H70V178.365l-33.87-6.8,30.593-47.977-.3-1.641a83.57,83.57,0,0,1-.365-30.012H283.115Zm-12.788-9.195H255.606l26.052-53.424,11.586,5.075Zm24.39-57.919-5.78-2.542,5.78-3.806Z" transform="translate(793.83 511)"/>
      <path id="Path_87" data-name="Path 87" class="cls-2" d="M108.622,138.065c-8.644,0-15.679-4.6-15.679-13.791H82.491c0,13.791,11.722,22.984,26.131,22.984s26.131-9.194,26.131-22.984H124.3C124.3,133.468,117.266,138.065,108.622,138.065Z" transform="translate(791.457 492.452)"/>
      <text id="Graphics_Design" data-name="Graphics Design" class="cls-3" transform="translate(961 869)"><tspan x="-142.66" y="0">Graphics Design</tspan></text>
    </g>
    <g id="Group_475" data-name="Group 475" transform="translate(620 9)">
      <text id="_24_HOURS" data-name="24 HOURS" class="cls-4" transform="translate(365 477)"><tspan x="-73.267" y="0">24 HOURS</tspan></text>
      <g id="Group_472" data-name="Group 472" transform="translate(29 66)">
        <g id="Group_471" data-name="Group 471">
          <path id="Path_205" data-name="Path 205" class="cls-5" d="M29.836,29.995a1.924,1.924,0,0,0,1.386-.73L36.2,22.793a.478.478,0,0,0-.055-.647.559.559,0,0,0-.688-.052l-6.884,4.683a1.756,1.756,0,0,0-.774,1.3,1.721,1.721,0,0,0,.549,1.4A1.952,1.952,0,0,0,29.687,30C29.736,30,29.786,30,29.836,29.995Zm-.976-1.837a.77.77,0,0,1,.339-.571l4.2-2.857-3.037,3.948a.846.846,0,0,1-.608.32.871.871,0,0,1-.652-.226A.756.756,0,0,1,28.859,28.158Z" transform="translate(209.033 373)"/>
          <path id="Path_206" data-name="Path 206" class="cls-5" d="M39.874,9.782c-.005-.01-.005-.022-.011-.032s-.016-.015-.023-.025a13.684,13.684,0,0,0-1.9-2.4l1.142-1.074.752.707,2.256-2.122L39.838,2.712,37.582,4.833l.752.707L37.192,6.614a14.418,14.418,0,0,0-2.557-1.783c-.01-.006-.016-.016-.027-.022s-.023-.005-.034-.011a14.887,14.887,0,0,0-5.463-1.7V2.5h.8a1.293,1.293,0,0,0,1.329-1.25A1.293,1.293,0,0,0,29.908,0H25.122a1.293,1.293,0,0,0-1.329,1.25A1.293,1.293,0,0,0,25.122,2.5h.8v.578a15.482,15.482,0,0,0-1.714.268.5.5,0,0,0-.4.6.533.533,0,0,0,.637.375,14.31,14.31,0,0,1,1.478-.238l.571-.042c.174-.012.335-.022.491-.028V5a.533.533,0,0,0,1.064,0V4.015a13.843,13.843,0,0,1,5.56,1.422l-.524.853a.484.484,0,0,0,.195.683.554.554,0,0,0,.265.067A.538.538,0,0,0,34,6.791l.523-.852a13.027,13.027,0,0,1,4.133,3.886l-.906.491A.484.484,0,0,0,37.56,11a.539.539,0,0,0,.461.25.554.554,0,0,0,.265-.067l.908-.493A11.84,11.84,0,0,1,40.709,16h-1.05a.5.5,0,1,0,0,1h1.05a11.84,11.84,0,0,1-1.515,5.31l-.908-.493A.55.55,0,0,0,37.56,22a.484.484,0,0,0,.195.683l.906.492a13.027,13.027,0,0,1-4.133,3.886L34,26.208a.55.55,0,0,0-.726-.183.483.483,0,0,0-.195.683l.524.854a13.843,13.843,0,0,1-5.56,1.423V28a.533.533,0,0,0-1.064,0v.988a14.227,14.227,0,0,1-2.54-.309.531.531,0,0,0-.637.376.5.5,0,0,0,.4.6A15.243,15.243,0,0,0,27.428,30l.077,0,.01,0,.012,0a14.965,14.965,0,0,0,7.03-1.787.468.468,0,0,0,.05-.02c.011-.006.016-.015.027-.022a14.064,14.064,0,0,0,5.2-4.881.481.481,0,0,0,.032-.039c.006-.01.006-.021.011-.032a12.755,12.755,0,0,0,0-13.436Zm-.037-5.657.752.707-.752.707-.752-.707ZM26.983,3.011V1.5H25.122a.259.259,0,0,1-.266-.25A.259.259,0,0,1,25.122,1h4.786a.259.259,0,0,1,.266.25.259.259,0,0,1-.266.25H28.047V3.011C27.862,3,27.685,3,27.515,3h-.087c-.087,0-.174.006-.262.007C27.105,3.009,27.047,3.008,26.983,3.011Z" transform="translate(210.906 384)"/>
          <path id="Path_207" data-name="Path 207" class="cls-5" d="M18.984,14H16.325a.5.5,0,1,0,0,1h2.659a.5.5,0,1,0,0-1Z" transform="translate(214.652 377)"/>
          <path id="Path_208" data-name="Path 208" class="cls-5" d="M16.643,21H11.325a.5.5,0,1,0,0,1h5.318a.5.5,0,1,0,0-1Z" transform="translate(216.993 373.5)"/>
          <path id="Path_209" data-name="Path 209" class="cls-5" d="M14.3,28H6.325a.5.5,0,1,0,0,1H14.3a.5.5,0,1,0,0-1Z" transform="translate(219.334 370)"/>
          <path id="Path_210" data-name="Path 210" class="cls-5" d="M12.428,35H2.325a.5.5,0,1,0,0,1h10.1a.5.5,0,1,0,0-1Z" transform="translate(221.207 366.5)"/>
          <path id="Path_211" data-name="Path 211" class="cls-5" d="M15.238,42H8.325a.5.5,0,1,0,0,1h6.913a.5.5,0,1,0,0-1Z" transform="translate(218.398 363)"/>
          <path id="Path_212" data-name="Path 212" class="cls-5" d="M18.047,49H14.325a.5.5,0,1,0,0,1h3.722a.5.5,0,1,0,0-1Z" transform="translate(215.588 359.5)"/>
        </g>
      </g>
    </g>
  </g>
</svg>
