<svg xmlns="http://www.w3.org/2000/svg" viewBox="3198 459 640 640">
  <defs>
    <style>
      .cls-1 {
        fill: #54abee;
      }

      .cls-2, .cls-3, .cls-4, .cls-5 {
        fill: #fff;
      }

      .cls-3 {
        font-size: 40px;
      }

      .cls-3, .cls-4 {
        font-family: Lato-Regular, Lato;
      }

      .cls-4 {
        font-size: 30px;
      }

      .cls-5 {
        stroke: #fff;
      }
    </style>
  </defs>
  <g id="Group_478" data-name="Group 478" transform="translate(3192 19)">
    <g id="Group_477" data-name="Group 477">
      <rect id="Rectangle_9" data-name="Rectangle 9" class="cls-1" width="640" height="640" transform="translate(6 440)"/>
      <g id="Group_473" data-name="Group 473" transform="translate(-10 4)">
        <path id="Path_77" data-name="Path 77" class="cls-2" d="M280.537,2.845H4.463A4.5,4.5,0,0,0,0,7.383V283.307a4.5,4.5,0,0,0,4.463,4.538H280.537A4.5,4.5,0,0,0,285,283.307V7.383A4.5,4.5,0,0,0,280.537,2.845Zm-4.462,275.923H8.925V70.011h267.15V278.769Zm0-217.835H8.925V11.921h267.15V60.934Z" transform="translate(186.655 508.155)"/>
        <path id="Path_78" data-name="Path 78" class="cls-2" d="M273.042,25.6H220.683a4.539,4.539,0,0,0,0,9.077h52.359a4.539,4.539,0,0,0,0-9.077Z" transform="translate(151.31 504.758)"/>
        <path id="Path_79" data-name="Path 79" class="cls-2" d="M309.863,25.6h-9.52a4.539,4.539,0,0,0,0,9.077h9.52a4.539,4.539,0,0,0,0-9.077Z" transform="translate(138.289 504.758)"/>
        <path id="Path_80" data-name="Path 80" class="cls-2" d="M172.373,19.915a19.063,19.063,0,1,0,18.742,19.06A18.925,18.925,0,0,0,172.373,19.915Zm0,29.045a9.986,9.986,0,1,1,9.817-9.984A9.913,9.913,0,0,1,172.373,48.96Z" transform="translate(161.542 505.607)"/>
        <path id="Path_81" data-name="Path 81" class="cls-2" d="M109.783,19.915a19.063,19.063,0,1,0,18.742,19.06A18.925,18.925,0,0,0,109.783,19.915Zm0,29.045a9.986,9.986,0,1,1,9.817-9.984A9.913,9.913,0,0,1,109.783,48.96Z" transform="translate(171.773 505.607)"/>
        <path id="Path_82" data-name="Path 82" class="cls-2" d="M47.192,19.915a19.063,19.063,0,1,0,18.742,19.06A18.925,18.925,0,0,0,47.192,19.915Zm0,29.045a9.986,9.986,0,1,1,9.817-9.984A9.913,9.913,0,0,1,47.192,48.96Z" transform="translate(182.004 505.607)"/>
        <path id="Path_83" data-name="Path 83" class="cls-2" d="M98.305,151.964a13.653,13.653,0,0,0-3.664-9.732,13.23,13.23,0,0,0-18.926-.52L30.5,185.279a13.772,13.772,0,0,0,.281,20.03L76,246.455a13.239,13.239,0,0,0,8.922,3.468h0a13.308,13.308,0,0,0,9.98-4.537,13.793,13.793,0,0,0-1.05-19.225L59.467,194.876l34.664-33.4A13.633,13.633,0,0,0,98.305,151.964ZM87.991,154.89,49.809,191.677a4.592,4.592,0,0,0,.094,6.677l38,34.573a4.6,4.6,0,0,1,.351,6.408,4.41,4.41,0,0,1-6.3.356L36.728,198.544a4.59,4.59,0,0,1-.094-6.676L81.853,148.3a4.392,4.392,0,0,1,3.066-1.244l.124,0a4.4,4.4,0,0,1,3.119,1.415,4.594,4.594,0,0,1-.17,6.416Z" transform="translate(182.353 487.985)"/>
        <path id="Path_84" data-name="Path 84" class="cls-2" d="M296.127,185.28l-45.219-43.567a13.246,13.246,0,0,0-18.926.52,13.8,13.8,0,0,0,.512,19.247l34.664,33.4-34.383,31.286a13.794,13.794,0,0,0-1.05,19.225,13.31,13.31,0,0,0,9.979,4.536h0a13.237,13.237,0,0,0,8.922-3.468l45.219-41.147a13.774,13.774,0,0,0,.281-20.03Zm-6.232,13.266-45.219,41.147a4.409,4.409,0,0,1-2.972,1.157h0a4.38,4.38,0,0,1-3.328-1.512,4.6,4.6,0,0,1,.35-6.409l37.995-34.573a4.592,4.592,0,0,0,.094-6.677l-38.182-36.787a4.6,4.6,0,0,1-.171-6.416,4.415,4.415,0,0,1,6.308-.173l45.219,43.567a4.587,4.587,0,0,1,1.393,3.359h0A4.575,4.575,0,0,1,289.895,198.546Z" transform="translate(149.333 487.984)"/>
        <path id="Path_85" data-name="Path 85" class="cls-2" d="M197.425,153.748a13.5,13.5,0,0,0-6.247-8.259h0a13.283,13.283,0,0,0-18.281,5.006l-45.219,79.873a13.757,13.757,0,0,0,4.922,18.592,13.225,13.225,0,0,0,6.67,1.817,13.391,13.391,0,0,0,11.61-6.823L196.1,164.081A13.729,13.729,0,0,0,197.425,153.748Zm-9.06,5.8-45.219,79.873a4.469,4.469,0,0,1-3.876,2.275,4.339,4.339,0,0,1-2.218-.606,4.586,4.586,0,0,1-1.641-6.2l45.22-79.873a4.451,4.451,0,0,1,3.875-2.272,4.378,4.378,0,0,1,2.219.6,4.5,4.5,0,0,1,2.082,2.752A4.574,4.574,0,0,1,188.365,159.551Z" transform="translate(166.075 487.135)"/>
      </g>
      <text id="Web_Development" data-name="Web Development" class="cls-3" transform="translate(319 868)"><tspan x="-164.94" y="0">Web Development</tspan></text>
      <g id="Group_474" data-name="Group 474" transform="translate(-19 9)">
        <text id="_48_HOURS" data-name="48 HOURS" class="cls-4" transform="translate(365 477)"><tspan x="-73.267" y="0">48 HOURS</tspan></text>
        <g id="Group_472" data-name="Group 472" transform="translate(29 66)">
          <g id="Group_471" data-name="Group 471">
            <path id="Path_205" data-name="Path 205" class="cls-5" d="M29.836,29.995a1.924,1.924,0,0,0,1.386-.73L36.2,22.793a.478.478,0,0,0-.055-.647.559.559,0,0,0-.688-.052l-6.884,4.683a1.756,1.756,0,0,0-.774,1.3,1.721,1.721,0,0,0,.549,1.4A1.952,1.952,0,0,0,29.687,30C29.736,30,29.786,30,29.836,29.995Zm-.976-1.837a.77.77,0,0,1,.339-.571l4.2-2.857-3.037,3.948a.846.846,0,0,1-.608.32.871.871,0,0,1-.652-.226A.756.756,0,0,1,28.859,28.158Z" transform="translate(209.033 373)"/>
            <path id="Path_206" data-name="Path 206" class="cls-5" d="M39.874,9.782c-.005-.01-.005-.022-.011-.032s-.016-.015-.023-.025a13.684,13.684,0,0,0-1.9-2.4l1.142-1.074.752.707,2.256-2.122L39.838,2.712,37.582,4.833l.752.707L37.192,6.614a14.418,14.418,0,0,0-2.557-1.783c-.01-.006-.016-.016-.027-.022s-.023-.005-.034-.011a14.887,14.887,0,0,0-5.463-1.7V2.5h.8a1.293,1.293,0,0,0,1.329-1.25A1.293,1.293,0,0,0,29.908,0H25.122a1.293,1.293,0,0,0-1.329,1.25A1.293,1.293,0,0,0,25.122,2.5h.8v.578a15.482,15.482,0,0,0-1.714.268.5.5,0,0,0-.4.6.533.533,0,0,0,.637.375,14.31,14.31,0,0,1,1.478-.238l.571-.042c.174-.012.335-.022.491-.028V5a.533.533,0,0,0,1.064,0V4.015a13.843,13.843,0,0,1,5.56,1.422l-.524.853a.484.484,0,0,0,.195.683.554.554,0,0,0,.265.067A.538.538,0,0,0,34,6.791l.523-.852a13.027,13.027,0,0,1,4.133,3.886l-.906.491A.484.484,0,0,0,37.56,11a.539.539,0,0,0,.461.25.554.554,0,0,0,.265-.067l.908-.493A11.84,11.84,0,0,1,40.709,16h-1.05a.5.5,0,1,0,0,1h1.05a11.84,11.84,0,0,1-1.515,5.31l-.908-.493A.55.55,0,0,0,37.56,22a.484.484,0,0,0,.195.683l.906.492a13.027,13.027,0,0,1-4.133,3.886L34,26.208a.55.55,0,0,0-.726-.183.483.483,0,0,0-.195.683l.524.854a13.843,13.843,0,0,1-5.56,1.423V28a.533.533,0,0,0-1.064,0v.988a14.227,14.227,0,0,1-2.54-.309.531.531,0,0,0-.637.376.5.5,0,0,0,.4.6A15.243,15.243,0,0,0,27.428,30l.077,0,.01,0,.012,0a14.965,14.965,0,0,0,7.03-1.787.468.468,0,0,0,.05-.02c.011-.006.016-.015.027-.022a14.064,14.064,0,0,0,5.2-4.881.481.481,0,0,0,.032-.039c.006-.01.006-.021.011-.032a12.755,12.755,0,0,0,0-13.436Zm-.037-5.657.752.707-.752.707-.752-.707ZM26.983,3.011V1.5H25.122a.259.259,0,0,1-.266-.25A.259.259,0,0,1,25.122,1h4.786a.259.259,0,0,1,.266.25.259.259,0,0,1-.266.25H28.047V3.011C27.862,3,27.685,3,27.515,3h-.087c-.087,0-.174.006-.262.007C27.105,3.009,27.047,3.008,26.983,3.011Z" transform="translate(210.906 384)"/>
            <path id="Path_207" data-name="Path 207" class="cls-5" d="M18.984,14H16.325a.5.5,0,1,0,0,1h2.659a.5.5,0,1,0,0-1Z" transform="translate(214.652 377)"/>
            <path id="Path_208" data-name="Path 208" class="cls-5" d="M16.643,21H11.325a.5.5,0,1,0,0,1h5.318a.5.5,0,1,0,0-1Z" transform="translate(216.993 373.5)"/>
            <path id="Path_209" data-name="Path 209" class="cls-5" d="M14.3,28H6.325a.5.5,0,1,0,0,1H14.3a.5.5,0,1,0,0-1Z" transform="translate(219.334 370)"/>
            <path id="Path_210" data-name="Path 210" class="cls-5" d="M12.428,35H2.325a.5.5,0,1,0,0,1h10.1a.5.5,0,1,0,0-1Z" transform="translate(221.207 366.5)"/>
            <path id="Path_211" data-name="Path 211" class="cls-5" d="M15.238,42H8.325a.5.5,0,1,0,0,1h6.913a.5.5,0,1,0,0-1Z" transform="translate(218.398 363)"/>
            <path id="Path_212" data-name="Path 212" class="cls-5" d="M18.047,49H14.325a.5.5,0,1,0,0,1h3.722a.5.5,0,1,0,0-1Z" transform="translate(215.588 359.5)"/>
          </g>
        </g>
      </g>
    </g>
  </g>
</svg>
