<svg xmlns="http://www.w3.org/2000/svg" viewBox="1202 699 300 358">
  <defs>
    <style>
      .cls-1 {
        fill: #f5f5f5;
      }

      .cls-2, .cls-5 {
        fill: #54abee;
      }

      .cls-3 {
        font-size: 29px;
        font-family: LeelawadeeUI, Leelawadee UI;
      }

      .cls-4, .cls-5 {
        stroke: none;
      }
    </style>
  </defs>
  <g id="Group_161" data-name="Group 161" transform="translate(1141 40)">
    <g id="Path_30" data-name="Path 30" class="cls-1" transform="translate(61 659)">
      <path class="cls-4" d="M 150 299.5 C 139.8563079833984 299.5 129.7191162109375 298.4781188964844 119.870002746582 296.4627075195313 C 110.2714996337891 294.49853515625 100.830078125 291.5677795410156 91.80799865722656 287.7517700195313 C 82.94965362548828 284.0049743652344 74.40569305419922 279.3674621582031 66.41349792480469 273.9680480957031 C 58.49707794189453 268.6198425292969 51.0528450012207 262.477783203125 44.28753662109375 255.7124633789063 C 37.52223205566406 248.9471588134766 31.38015365600586 241.5029296875 26.03196144104004 233.5865325927734 C 20.63253784179688 225.5943450927734 15.99503803253174 217.0503845214844 12.24823093414307 208.1920013427734 C 8.432230949401855 199.1699676513672 5.501461505889893 189.7285308837891 3.537307739257813 180.1300048828125 C 1.521884560585022 170.2809295654297 0.5 160.1437377929688 0.5 150 C 0.5 139.8563079833984 1.521884560585022 129.7191162109375 3.537307739257813 119.870002746582 C 5.501461505889893 110.2714996337891 8.432230949401855 100.830078125 12.24823093414307 91.80799865722656 C 15.99503803253174 82.94965362548828 20.63253784179688 74.40569305419922 26.03196144104004 66.41349792480469 C 31.38015365600586 58.49707794189453 37.52223205566406 51.0528450012207 44.28753662109375 44.28753662109375 C 51.0528450012207 37.52223205566406 58.49707794189453 31.38015365600586 66.41349792480469 26.03196144104004 C 74.40569305419922 20.63253784179688 82.94965362548828 15.99503803253174 91.80799865722656 12.24823093414307 C 100.830078125 8.432230949401855 110.2714996337891 5.501461505889893 119.870002746582 3.537307739257813 C 129.7191162109375 1.521884560585022 139.8563079833984 0.5 150 0.5 C 160.1437377929688 0.5 170.2809295654297 1.521884560585022 180.1300048828125 3.537307739257813 C 189.7285308837891 5.501461505889893 199.1699676513672 8.432230949401855 208.1920013427734 12.24823093414307 C 217.0503845214844 15.99503803253174 225.5943450927734 20.63253784179688 233.5865325927734 26.03196144104004 C 241.5029296875 31.38015365600586 248.9471588134766 37.52223205566406 255.7124633789063 44.28753662109375 C 262.477783203125 51.0528450012207 268.6198425292969 58.49707794189453 273.9680480957031 66.41349792480469 C 279.3674621582031 74.40569305419922 284.0049743652344 82.94965362548828 287.7517700195313 91.80799865722656 C 291.5677795410156 100.830078125 294.49853515625 110.2714996337891 296.4627075195313 119.870002746582 C 298.4781188964844 129.7191162109375 299.5 139.8563079833984 299.5 150 C 299.5 160.1437377929688 298.4781188964844 170.2809295654297 296.4627075195313 180.1300048828125 C 294.49853515625 189.7285308837891 291.5677795410156 199.1699676513672 287.7517700195313 208.1920013427734 C 284.0049743652344 217.0503845214844 279.3674621582031 225.5943450927734 273.9680480957031 233.5865325927734 C 268.6198425292969 241.5029296875 262.477783203125 248.9471588134766 255.7124633789063 255.7124633789063 C 248.9471588134766 262.477783203125 241.5029296875 268.6198425292969 233.5865325927734 273.9680480957031 C 225.5943450927734 279.3674621582031 217.0503845214844 284.0049743652344 208.1920013427734 287.7517700195313 C 199.1699676513672 291.5677795410156 189.7285308837891 294.49853515625 180.1300048828125 296.4627075195313 C 170.2809295654297 298.4781188964844 160.1437377929688 299.5 150 299.5 Z"/>
      <path class="cls-5" d="M 150 299 C 160.1101226806641 299 170.2135772705078 297.9815063476563 180.0297698974609 295.9728393554688 C 189.5959625244141 294.0153198242188 199.0055694580078 291.0944213867188 207.9972381591797 287.291259765625 C 216.8258819580078 283.5570373535156 225.3411865234375 278.9350891113281 233.3066101074219 273.5537414550781 C 241.1966552734375 268.2233581542969 248.6161193847656 262.1017456054688 255.3589172363281 255.3589172363281 C 262.1017456054688 248.6161193847656 268.2233581542969 241.1966552734375 273.5537414550781 233.3066101074219 C 278.9350891113281 225.3411865234375 283.5570373535156 216.8258819580078 287.291259765625 207.9972381591797 C 291.0944213867188 199.0055694580078 294.0153198242188 189.5959625244141 295.9728393554688 180.0297698974609 C 297.9815063476563 170.2135772705078 299 160.1101226806641 299 150 C 299 139.8898773193359 297.9815063476563 129.7864227294922 295.9728393554688 119.9702301025391 C 294.0153198242188 110.4040756225586 291.0944213867188 100.9944610595703 287.291259765625 92.0028076171875 C 283.5570373535156 83.17415618896484 278.9350891113281 74.65884399414063 273.5537414550781 66.69338226318359 C 268.2233581542969 58.8033447265625 262.1017456054688 51.38388442993164 255.3589172363281 44.64111709594727 C 248.6161193847656 37.89830780029297 241.1966552734375 31.77665328979492 233.3066101074219 26.44626998901367 C 225.3411865234375 21.06492233276367 216.8258819580078 16.44296073913574 207.9972381591797 12.70876884460449 C 199.0055694580078 8.90561580657959 189.5959625244141 5.984692096710205 180.0297698974609 4.027153968811035 C 170.2135772705078 2.018500089645386 160.1101226806641 1 150 1 C 139.8898773193359 1 129.7864227294922 2.018500089645386 119.9702301025391 4.027153968811035 C 110.4040756225586 5.984692096710205 100.9944610595703 8.90561580657959 92.0028076171875 12.70876884460449 C 83.17415618896484 16.44296073913574 74.65884399414063 21.06492233276367 66.69338226318359 26.44626998901367 C 58.8033447265625 31.77665328979492 51.38388442993164 37.89830780029297 44.64111709594727 44.64111709594727 C 37.89830780029297 51.38388442993164 31.77665328979492 58.8033447265625 26.44626998901367 66.69338226318359 C 21.06492233276367 74.65884399414063 16.44296073913574 83.17415618896484 12.70876884460449 92.0028076171875 C 8.90561580657959 100.9944610595703 5.984692096710205 110.4040756225586 4.027153968811035 119.9702301025391 C 2.018500089645386 129.7864227294922 1 139.8898773193359 1 150 C 1 160.1101226806641 2.018500089645386 170.2135772705078 4.027153968811035 180.0297698974609 C 5.984692096710205 189.5959625244141 8.90561580657959 199.0055694580078 12.70876884460449 207.9972381591797 C 16.44296073913574 216.8258819580078 21.06492233276367 225.3411865234375 26.44626998901367 233.3066101074219 C 31.77665328979492 241.1966552734375 37.89830780029297 248.6161193847656 44.64111709594727 255.3589172363281 C 51.38388442993164 262.1017456054688 58.8033447265625 268.2233581542969 66.69338226318359 273.5537414550781 C 74.65884399414063 278.9350891113281 83.17415618896484 283.5570373535156 92.0028076171875 287.291259765625 C 100.9944610595703 291.0944213867188 110.4040756225586 294.0153198242188 119.9702301025391 295.9728393554688 C 129.7864227294922 297.9815063476563 139.8898773193359 299 150 299 M 150 300 C 67.15731048583984 300 0 232.8427276611328 0 150 C 0 67.15731048583984 67.15731048583984 0 150 0 C 232.8427276611328 0 300 67.15731048583984 300 150 C 300 232.8427276611328 232.8427276611328 300 150 300 Z"/>
    </g>
    <g id="Group_160" data-name="Group 160">
      <g id="Group_6" data-name="Group 6" transform="translate(136 730)">
        <g id="Group_5" data-name="Group 5">
          <path id="Path_5" data-name="Path 5" class="cls-2" d="M108.252,79.2A74.675,74.675,0,0,0,99.39,75.48a42.568,42.568,0,0,0,16.057-33.551C115.447,18.809,97.48,0,75.394,0S35.341,18.809,35.341,41.928a42.567,42.567,0,0,0,16.09,33.577,75.6,75.6,0,0,0-24.681,14.2A81.159,81.159,0,0,0,.383,135.257a19.382,19.382,0,0,0,3.641,15.695,17.487,17.487,0,0,0,13.851,6.9H90.414a6.172,6.172,0,0,0,0-12.332H17.875a5.9,5.9,0,0,1-4.712-2.345,6.668,6.668,0,0,1-1.248-5.4c6.113-30.736,32.01-53.188,61.917-53.945q.777.031,1.561.031t1.577-.032A61.82,61.82,0,0,1,103.2,90.342a5.778,5.778,0,0,0,7.848-2.922A6.294,6.294,0,0,0,108.252,79.2ZM76.831,71.487q-.717-.013-1.437-.014t-1.425.014c-14.93-.78-26.847-13.74-26.847-29.559,0-16.32,12.683-29.6,28.273-29.6s28.273,13.277,28.273,29.6C103.667,57.744,91.756,70.7,76.831,71.487Z" transform="translate(0)"/>
        </g>
      </g>
      <g id="Group_8" data-name="Group 8" transform="translate(230.831 829.272)">
        <g id="Group_7" data-name="Group 7">
          <path id="Path_6" data-name="Path 6" class="cls-2" d="M372.066,345.122h-16.2V328.166a5.9,5.9,0,1,0-11.78,0v16.956h-16.2a6.172,6.172,0,0,0,0,12.332h16.2v16.956a5.9,5.9,0,1,0,11.78,0V357.454h16.2a6.172,6.172,0,0,0,0-12.332Z" transform="translate(-322 -322)"/>
        </g>
      </g>
      <text id="SIGNUP_OR_LOGIN" data-name="SIGNUP OR LOGIN" class="cls-3" transform="translate(85 1010)"><tspan x="0" y="0">SIGNUP OR LOGIN</tspan></text>
    </g>
  </g>
</svg>
