<svg xmlns="http://www.w3.org/2000/svg" viewBox="4476 459 640 640">
  <defs>
    <style>
      .cls-1 {
        fill: #fff;
      }

      .cls-1, .cls-5 {
        stroke: #707070;
      }

      .cls-2 {
        fill: #fcfcfc;
      }

      .cls-3 {
        fill: #8e8e8e;
        font-family: Lato-Regular, Lato;
      }

      .cls-3, .cls-6 {
        font-size: 60px;
      }

      .cls-4 {
        fill: #afafaf;
      }

      .cls-5 {
        fill: #fcec03;
      }

      .cls-6 {
        font-family: Lato-ExtraBold, Lato;
        font-weight: 800;
      }

      .cls-7 {
        stroke: none;
      }

      .cls-8 {
        fill: none;
      }
    </style>
  </defs>
  <g id="Group_147" data-name="Group 147" transform="translate(3198 19)">
    <g id="Rectangle_10" data-name="Rectangle 10" class="cls-1" transform="translate(1386 511)">
      <rect class="cls-7" width="424" height="335"/>
      <rect class="cls-8" x="0.5" y="0.5" width="423" height="334"/>
    </g>
    <g id="Group_144" data-name="Group 144">
      <rect id="Rectangle_9" data-name="Rectangle 9" class="cls-2" width="640" height="640" transform="translate(1278 440)"/>
      <text id="Illustrations" class="cls-3" transform="translate(1612 869)"><tspan x="-153.42" y="0">Illustrations</tspan></text>
      <g id="Group_126" data-name="Group 126" transform="translate(25)">
        <path id="Path_88" data-name="Path 88" class="cls-4" d="M0,0V285H285V0ZM268.3,268.3H16.7V16.7H268.3Z" transform="translate(1430.5 511)"/>
        <path id="Path_89" data-name="Path 89" class="cls-4" d="M253.263,127.337l-77.354,80.018,35.615-64.107v-26l-3.391-2.5A74.557,74.557,0,0,1,177.576,54.75l-.055-8.3H116.386l-.055,8.3a74.556,74.556,0,0,1-30.557,59.993l-3.39,2.5v26l29.337,52.807-64.663-74.64-17.218,15.9L142.082,251.345l5.138,5.22,4.605-5.22L257.656,131.4Zm-106.309-8.519a16.7,16.7,0,0,0-8.35,31.159V210.06L99.083,138.921V125.548a92.693,92.693,0,0,0,23.636-28.975,91.994,91.994,0,0,0,9.88-33.418h28.71a91.994,91.994,0,0,0,9.88,33.418,92.687,92.687,0,0,0,23.636,28.975V138.92L155.3,210.059V149.977a16.7,16.7,0,0,0-8.35-31.159Z" transform="translate(1426.046 504.066)"/>
      </g>
    </g>
    <g id="Group_131" data-name="Group 131" transform="translate(652)">
      <g id="Rectangle_325" data-name="Rectangle 325" class="cls-5" transform="translate(771 894)">
        <rect class="cls-7" width="379" height="120" rx="60"/>
        <rect class="cls-8" x="0.5" y="0.5" width="378" height="119" rx="59.5"/>
      </g>
      <text id="N10_000" data-name="N10,000" class="cls-6" transform="translate(965 977)"><tspan x="-117.51" y="0">N10,000</tspan></text>
    </g>
  </g>
</svg>
