<svg xmlns="http://www.w3.org/2000/svg" viewBox="1190.848 227.273 157 157">
  <defs>
    <style>
      .cls-1 {
        fill: #d5e3ef;
      }

      .cls-2 {
        fill: #b0c4d9;
      }

      .cls-3 {
        fill: #f79548;
      }

      .cls-4 {
        fill: #fcbb76;
      }

      .cls-5 {
        fill: #99b4cd;
      }

      .cls-6 {
        fill: #6c9abb;
      }

      .cls-7 {
        fill: #70b7e5;
      }

      .cls-8 {
        fill: #f04b4d;
      }

      .cls-9 {
        fill: #4c9cd6;
      }

      .cls-10 {
        fill: #f04d4e;
      }

      .cls-11 {
        fill: #db343f;
      }

      .cls-12 {
        fill: #ecf0f9;
      }

      .cls-13 {
        fill: #f26a56;
      }
    </style>
  </defs>
  <g id="startup" transform="translate(1190.848 226.95)">
    <path id="Path_31" data-name="Path 31" class="cls-1" d="M195.157,110.825,152.436,68.05l34.889-34.933A113.229,113.229,0,0,1,248.558,1.392L254.966.323h1.068a6.386,6.386,0,0,1,6.408,6.416h0V7.809l-.712,6.773A113.084,113.084,0,0,1,230.4,75.536Z" transform="translate(-105.799)"/>
    <path id="Path_32" data-name="Path 32" class="cls-2" d="M302.254,53.025,251.345,104l12.46,12.476,34.889-34.933a111.928,111.928,0,0,0,31.329-60.954l1.424-6.773V12.746a5.907,5.907,0,0,0-1.78-4.278A112.3,112.3,0,0,1,302.254,53.025Z" transform="translate(-174.447 -5.65)"/>
    <g id="Group_49" data-name="Group 49" transform="translate(0 64.664)">
      <path id="Path_33" data-name="Path 33" class="cls-3" d="M268.816,467.964a5.582,5.582,0,0,0-7.832,0c-2.848,2.852-4.628,11.763-4.984,12.12v.357s.356.357.356,0c.356,0,8.9-1.782,12.1-4.99C271.308,473.311,271.308,470.1,268.816,467.964Z" transform="translate(-177.678 -387.939)"/>
      <path id="Path_34" data-name="Path 34" class="cls-3" d="M13.624,211.964a5.582,5.582,0,0,0-7.832,0c-2.848,2.852-4.628,11.407-4.628,11.763v.357s.356.357.356,0c.356,0,8.9-1.782,12.1-4.99C16.116,217.311,16.116,214.1,13.624,211.964Z" transform="translate(-0.808 -210.359)"/>
      <path id="Path_35" data-name="Path 35" class="cls-3" d="M38.093,378.081a16.747,16.747,0,0,0-23.5,0c-8.9,8.911-14.24,34.933-14.6,36,0,.713,0,1.069.356,1.426a4.509,4.509,0,0,0,2.136.357c1.068-.357,27.057-5.347,35.957-14.615A16.059,16.059,0,0,0,38.093,378.081Z" transform="translate(0 -323.365)"/>
    </g>
    <path id="Path_36" data-name="Path 36" class="cls-4" d="M78.214,384.692a8.373,8.373,0,0,0-11.748,0c-4.628,4.634-7.12,17.466-7.12,17.823s0,.713.356.713c.356.357.356.357.712.357.712,0,13.528-2.852,17.8-7.129A8.4,8.4,0,0,0,78.214,384.692Z" transform="translate(-41.189 -264.956)"/>
    <path id="Path_37" data-name="Path 37" class="cls-5" d="M279.48,346.586,268.8,335.892l21.361-21.387v21.387Z" transform="translate(-186.562 -217.939)"/>
    <path id="Path_38" data-name="Path 38" class="cls-6" d="M278.412,333.4l6.764-6.773a16.985,16.985,0,0,0,4.984-12.12h0L268.8,335.892l10.68,10.694,3.56-3.564-4.628-4.634A3.449,3.449,0,0,1,278.412,333.4Z" transform="translate(-186.562 -217.939)"/>
    <path id="Path_39" data-name="Path 39" class="cls-1" d="M294.677,392.19l-14.24-14.258,25.633-25.665a9.934,9.934,0,0,1,7.12-2.852h0a9.957,9.957,0,0,1,9.968,9.981h0a9.96,9.96,0,0,1-2.848,7.129Z" transform="translate(-194.639 -242.155)"/>
    <path id="Path_40" data-name="Path 40" class="cls-2" d="M320.31,373.924l-25.633,25.665L284,388.9l-3.56,3.564,14.24,14.258,25.633-25.665a9.96,9.96,0,0,0,2.848-7.129,10.561,10.561,0,0,0-.712-3.564A7.4,7.4,0,0,1,320.31,373.924Z" transform="translate(-194.639 -256.683)"/>
    <path id="Path_41" data-name="Path 41" class="cls-5" d="M94.255,310h0a18.233,18.233,0,0,1,8.188-4.99l6.052-2.139,21.361,21.387-2.136,6.06a21.16,21.16,0,0,1-4.984,8.2h0Z" transform="translate(-65.418 -209.866)"/>
    <path id="Path_42" data-name="Path 42" class="cls-6" d="M128.685,302.869l-5.34,1.782,11.748,11.763a10.227,10.227,0,0,1,2.492,10.337h0a12.054,12.054,0,0,1-2.136,4.278l7.476,7.486a18.264,18.264,0,0,0,4.984-8.2l2.136-6.06Z" transform="translate(-85.608 -209.867)"/>
    <path id="Path_43" data-name="Path 43" class="cls-5" d="M94.255,185.563l10.68,10.694,21.36-21.387h-21.36Z" transform="translate(-65.418 -121.077)"/>
    <path id="Path_44" data-name="Path 44" class="cls-6" d="M103.867,188.057a3.449,3.449,0,0,1,0-4.99l8.188-8.2h-7.12l-10.68,10.694,10.68,10.694h0a4.767,4.767,0,0,0,0-7.129Z" transform="translate(-65.418 -121.077)"/>
    <path id="Path_45" data-name="Path 45" class="cls-1" d="M24.436,121.93l14.24,14.258,25.633-25.665a9.96,9.96,0,0,0,2.848-7.129h0a10.194,10.194,0,0,0-9.968-9.981h0a9.934,9.934,0,0,0-7.12,2.852Z" transform="translate(-16.96 -64.574)"/>
    <ellipse id="Ellipse_4" data-name="Ellipse 4" class="cls-7" cx="14.24" cy="14.258" rx="14.24" ry="14.258" transform="translate(85.798 43.098)"/>
    <path id="Path_46" data-name="Path 46" class="cls-8" d="M286.6,163.969a17.823,17.823,0,1,1,17.8-17.823A17.639,17.639,0,0,1,286.6,163.969Zm0-28.517a10.694,10.694,0,1,0,10.68,10.694A10.5,10.5,0,0,0,286.6,135.452Z" transform="translate(-186.562 -88.79)"/>
    <path id="Path_47" data-name="Path 47" class="cls-9" d="M297.056,171.558a10.985,10.985,0,0,1,9.256-16.4,14.906,14.906,0,0,1,5.7,1.426,11.614,11.614,0,0,0-9.256-4.99,10.5,10.5,0,0,0-10.68,10.694A11.638,11.638,0,0,0,297.056,171.558Z" transform="translate(-202.714 -104.934)"/>
    <path id="Path_48" data-name="Path 48" class="cls-10" d="M166.082,264.189l-11.748,11.763a3.438,3.438,0,0,1-4.984,0l-37.737-37.785a3.449,3.449,0,0,1,0-4.99l11.748-11.763Z" transform="translate(-76.724 -153.364)"/>
    <path id="Path_49" data-name="Path 49" class="cls-11" d="M139.739,279.849,117.31,257.392a4.321,4.321,0,0,0-5.7,0h0a3.449,3.449,0,0,0,0,4.99l37.737,37.784a3.438,3.438,0,0,0,4.984,0L166.083,288.4l-12.46-12.476-3.916,3.921A6.877,6.877,0,0,1,139.739,279.849Z" transform="translate(-76.725 -177.579)"/>
    <path id="Path_62" data-name="Path 62" class="cls-10" d="M4.281,3.465l14.962-.009L19.23,23.761,4.268,23.77Z" transform="translate(116.319 138.999) rotate(135)"/>
    <path id="Path_50" data-name="Path 50" class="cls-11" d="M301.8,437.662l-4.984,4.99a4.753,4.753,0,0,1-7.12,0l-7.12-7.129-2.136,2.139,14.24,14.258,10.68-10.694Z" transform="translate(-194.638 -301.885)"/>
    <g id="Group_50" data-name="Group 50" transform="translate(58.919 30.8)">
      <path id="Path_51" data-name="Path 51" class="cls-12" d="M194.54,167.569a2.138,2.138,0,0,1-1.424-.357,1.724,1.724,0,0,1,0-2.5l17.8-17.823a1.763,1.763,0,0,1,2.492,2.5l-17.8,17.823C195.608,167.569,194.9,167.569,194.54,167.569Z" transform="translate(-192.582 -132.101)"/>
      <path id="Path_52" data-name="Path 52" class="cls-12" d="M275.994,110.329a2.138,2.138,0,0,1-1.424-.357,1.724,1.724,0,0,1,0-2.5l7.12-7.129a1.763,1.763,0,0,1,2.492,2.5l-7.12,7.129C277.062,110.329,276.35,110.329,275.994,110.329Z" transform="translate(-249.115 -99.814)"/>
    </g>
    <path id="Path_53" data-name="Path 53" class="cls-10" d="M403.379.323h-1.068l-6.764,1.069A107.934,107.934,0,0,0,364.218,11.73l17.089,17.11L398.4,45.95a120.152,120.152,0,0,0,10.324-31.368l1.068-6.416V7.1A6.474,6.474,0,0,0,403.379.323Z" transform="translate(-252.787 0)"/>
    <g id="Group_51" data-name="Group 51" transform="translate(82.238 5.67)">
      <path id="Path_54" data-name="Path 54" class="cls-13" d="M404.1,27.045a1.957,1.957,0,0,1-1.78-1.069,1.5,1.5,0,0,1,1.068-2.139,115.63,115.63,0,0,1,21.717-6.06,1.952,1.952,0,0,1,2.136,1.426,1.955,1.955,0,0,1-1.424,2.139,107.761,107.761,0,0,0-21,5.7Z" transform="translate(-361.374 -17.777)"/>
      <path id="Path_55" data-name="Path 55" class="cls-13" d="M286.6,128.68v-.357a17.639,17.639,0,0,0-17.8,17.823h.356a3.468,3.468,0,0,0,3.56-2.852,13.692,13.692,0,0,1,3.2-6.416,15.915,15.915,0,0,1,7.832-4.634A3.471,3.471,0,0,0,286.6,128.68Z" transform="translate(-268.8 -94.459)"/>
    </g>
    <path id="Path_56" data-name="Path 56" class="cls-11" d="M326.982,203.971v.357a17.639,17.639,0,0,0,17.8-17.823h-.356a3.468,3.468,0,0,0-3.56,2.852,13.692,13.692,0,0,1-3.2,6.416,15.915,15.915,0,0,1-7.832,4.634A3.471,3.471,0,0,0,326.982,203.971Z" transform="translate(-226.943 -129.149)"/>
    <path id="Path_57" data-name="Path 57" class="cls-12" d="M345.813,377.966a2.138,2.138,0,0,1-1.424-.357,1.724,1.724,0,0,1,0-2.5l7.12-7.129a1.763,1.763,0,1,1,2.492,2.5l-7.12,7.129C346.881,377.966,346.169,377.966,345.813,377.966Z" transform="translate(-238.654 -254.665)"/>
    <path id="Path_58" data-name="Path 58" class="cls-2" d="M64.31,117.924,38.677,143.589,28,132.9l-3.56,3.564,14.24,14.258L64.31,125.053a9.96,9.96,0,0,0,2.848-7.129,10.56,10.56,0,0,0-.712-3.564A7.4,7.4,0,0,1,64.31,117.924Z" transform="translate(-16.961 -79.103)"/>
    <path id="Path_59" data-name="Path 59" class="cls-12" d="M89.813,121.966a2.138,2.138,0,0,1-1.424-.357,1.724,1.724,0,0,1,0-2.5l7.12-7.129A1.763,1.763,0,1,1,98,114.48l-7.12,7.129C90.881,121.966,90.169,121.966,89.813,121.966Z" transform="translate(-60.976 -77.086)"/>
    <path id="Path_63" data-name="Path 63" class="cls-10" d="M4.281,3.465l14.962-.009L19.23,23.761,4.268,23.77Z" transform="translate(37.987 60.578) rotate(135)"/>
    <g id="Group_52" data-name="Group 52" transform="translate(7.476 2.818)">
      <path id="Path_60" data-name="Path 60" class="cls-11" d="M45.8,181.662l-4.984,4.99a4.753,4.753,0,0,1-7.12,0l-7.12-7.129-2.136,2.139,14.24,14.258,10.68-10.694Z" transform="translate(-24.436 -127.124)"/>
      <path id="Path_61" data-name="Path 61" class="cls-11" d="M446.836,42.689l8.9,8.911A120.153,120.153,0,0,0,466.06,20.232l1.068-6.416V12.747a5.907,5.907,0,0,0-1.78-4.278A110.413,110.413,0,0,1,446.836,42.689Z" transform="translate(-317.605 -8.469)"/>
    </g>
  </g>
</svg>
